<svg width="180" height="50" viewBox="0 0 180 50" fill="none" xmlns="http://www.w3.org/2000/svg">
<rect x="0.368347" width="179.383" height="50" rx="25" fill="white"/>
<path d="M47.5018 26.082C47.4631 21.7824 51.0233 19.6906 51.1861 19.5932C49.1698 16.6543 46.0446 16.2527 44.9464 16.2207C42.3216 15.9446 39.7756 17.7909 38.4385 17.7909C37.0747 17.7909 35.0157 16.2474 32.7966 16.2927C29.941 16.3368 27.2695 17.9897 25.8043 20.5564C22.7805 25.7899 25.0357 33.4807 27.9327 37.711C29.3819 39.7841 31.0752 42.096 33.2917 42.0147C35.4601 41.9266 36.2701 40.6339 38.8868 40.6339C41.4796 40.6339 42.2402 42.0147 44.5007 41.9626C46.8279 41.9266 48.2931 39.8815 49.6916 37.791C51.3662 35.4178 52.0388 33.0778 52.0655 32.9578C52.0121 32.9391 47.5472 31.2342 47.5018 26.082ZM43.2317 13.4379C44.398 11.9797 45.1959 9.996 44.9744 7.98291C43.2864 8.05762 41.1754 9.15021 39.9597 10.5763C38.8842 11.833 37.9234 13.8928 38.1716 15.8298C40.0678 15.9712 42.0147 14.8733 43.2317 13.4379Z" fill="#171717"/>
<path d="M65.8212 15.9439C65.1421 15.9439 64.5545 15.9107 64.0655 15.8546V8.48776C64.7495 8.38213 65.4406 8.33007 66.1327 8.33205C68.933 8.33205 70.2226 9.70946 70.2226 11.9548C70.2226 14.5447 68.6993 15.9439 65.8212 15.9439ZM66.2312 9.27666C65.8533 9.27666 65.5315 9.29956 65.2646 9.35452V14.9546C65.4089 14.9775 65.6861 14.9878 66.0755 14.9878C67.9102 14.9878 68.9547 13.9436 68.9547 11.988C68.9547 10.2442 68.0099 9.27666 66.2312 9.27666ZM74.2414 16C72.6632 16 71.6404 14.8218 71.6404 13.2223C71.6404 11.5552 72.6849 10.3667 74.3307 10.3667C75.886 10.3667 76.9316 11.4888 76.9316 13.1341C76.9316 14.8218 75.8539 16 74.2414 16ZM74.2872 11.2437C73.4202 11.2437 72.8647 12.0544 72.8647 13.1879C72.8647 14.2997 73.4316 15.1103 74.2757 15.1103C75.1198 15.1103 75.6867 14.2436 75.6867 13.165C75.6867 12.0658 75.1313 11.2437 74.2872 11.2437ZM85.9313 10.4777L84.242 15.8775H83.1414L82.4416 13.5326C82.2676 12.959 82.1228 12.377 82.0076 11.7888H81.9846C81.8965 12.3773 81.7292 12.9669 81.5517 13.5326L80.8073 15.8775H79.6952L78.1056 10.4777H79.339L79.9506 13.0448C80.0949 13.6562 80.2163 14.2333 80.3171 14.7783H80.34C80.4282 14.3237 80.5725 13.7558 80.7844 13.0562L81.5517 10.4789H82.5298L83.2639 13.0013C83.4415 13.6127 83.5858 14.2127 83.698 14.7794H83.7301C83.8079 14.2241 83.9305 13.6345 84.0966 13.0013L84.7528 10.4789L85.9313 10.4777ZM92.1502 15.8775H90.95V12.7769C90.95 11.822 90.5835 11.3434 89.8608 11.3434C89.1496 11.3434 88.6605 11.9548 88.6605 12.6658V15.8775H87.4603V12.0212C87.4603 11.5437 87.4488 11.0319 87.4156 10.4766H88.4716L88.5277 11.3101H88.5609C88.8839 10.7331 89.539 10.3667 90.2731 10.3667C91.4069 10.3667 92.1514 11.2334 92.1514 12.6441L92.1502 15.8775ZM95.4601 15.8775H94.2587V8H95.4601V15.8775ZM99.8362 16C98.2592 16 97.2353 14.8218 97.2353 13.2223C97.2353 11.5552 98.2798 10.3667 99.9244 10.3667C101.481 10.3667 102.525 11.4888 102.525 13.1341C102.527 14.8218 101.448 16 99.8362 16ZM99.8809 11.2437C99.0139 11.2437 98.4585 12.0544 98.4585 13.1879C98.4585 14.2997 99.0265 15.1103 99.8683 15.1103C100.714 15.1103 101.279 14.2436 101.279 13.165C101.28 12.0658 100.726 11.2437 99.8809 11.2437ZM107.258 15.8775L107.171 15.2558H107.139C106.772 15.7561 106.237 16 105.559 16C104.591 16 103.904 15.3222 103.904 14.4108C103.904 13.078 105.06 12.3887 107.061 12.3887V12.2891C107.061 11.5781 106.684 11.222 105.939 11.222C105.407 11.222 104.94 11.3559 104.528 11.6227L104.285 10.8338C104.784 10.5224 105.407 10.3667 106.139 10.3667C107.55 10.3667 108.262 11.1109 108.262 12.6005V14.5894C108.262 15.1344 108.286 15.5569 108.34 15.8786L107.258 15.8775ZM107.093 13.1879C105.76 13.1879 105.091 13.5108 105.091 14.2768C105.091 14.8436 105.436 15.1207 105.914 15.1207C106.525 15.1207 107.093 14.6546 107.093 14.0215V13.1879ZM114.09 15.8775L114.034 15.0107H114.001C113.656 15.6657 113.077 16 112.267 16C110.965 16 110.001 14.855 110.001 13.244C110.001 11.5552 111 10.3655 112.366 10.3655C113.088 10.3655 113.6 10.6094 113.889 11.0995H113.913V8H115.114V14.4222C115.114 14.9443 115.127 15.4332 115.159 15.8775H114.09ZM113.913 12.7002C113.913 11.9445 113.412 11.2998 112.649 11.2998C111.759 11.2998 111.215 12.0887 111.215 13.1994C111.215 14.2882 111.779 15.0336 112.625 15.0336C113.379 15.0336 113.913 14.3776 113.913 13.6001V12.7002ZM122.732 16C121.155 16 120.132 14.8218 120.132 13.2223C120.132 11.5552 121.176 10.3667 122.821 10.3667C124.377 10.3667 125.422 11.4888 125.422 13.1341C125.423 14.8218 124.345 16 122.732 16ZM122.776 11.2437C121.91 11.2437 121.355 12.0544 121.355 13.1879C121.355 14.2997 121.922 15.1103 122.765 15.1103C123.61 15.1103 124.176 14.2436 124.176 13.165C124.178 12.0658 123.623 11.2437 122.776 11.2437ZM131.877 15.8775H130.675V12.7769C130.675 11.822 130.309 11.3434 129.586 11.3434C128.875 11.3434 128.387 11.9548 128.387 12.6658V15.8775H127.186V12.0212C127.186 11.5437 127.174 11.0319 127.141 10.4766H128.197L128.253 11.3101H128.286C128.608 10.7331 129.264 10.3655 129.997 10.3655C131.131 10.3655 131.877 11.2323 131.877 12.6429V15.8775ZM139.952 11.3777H138.632V13.9997C138.632 14.6672 138.863 15.0004 139.33 15.0004C139.542 15.0004 139.72 14.9775 139.863 14.9443L139.896 15.8557C139.664 15.945 139.352 15.9897 138.965 15.9897C138.019 15.9897 137.453 15.4676 137.453 14.1005V11.3777H136.665V10.4777H137.453V9.48848L138.632 9.13239V10.4766H139.952V11.3777ZM146.306 15.8775H145.107V12.7998C145.107 11.8334 144.742 11.3445 144.018 11.3445C143.396 11.3445 142.817 11.767 142.817 12.6223V15.8775H141.617V8H142.817V11.2437H142.841C143.219 10.6552 143.766 10.3655 144.465 10.3655C145.608 10.3655 146.306 11.254 146.306 12.6658V15.8775ZM152.816 13.4662H149.214C149.237 14.4886 149.914 15.0657 150.916 15.0657C151.449 15.0657 151.939 14.9764 152.372 14.8104L152.558 15.6439C152.048 15.866 151.446 15.9771 150.747 15.9771C149.057 15.9771 148.057 14.91 148.057 13.2555C148.057 11.5998 149.081 10.3552 150.611 10.3552C151.991 10.3552 152.857 11.3777 152.857 12.9223C152.865 13.1046 152.851 13.2871 152.816 13.4662ZM151.715 12.6108C151.715 11.7773 151.295 11.1888 150.528 11.1888C149.838 11.1888 149.293 11.7888 149.215 12.6108H151.715Z" fill="#171717"/>
<path d="M76.9857 37.5266H74.374L72.9434 33.0324H67.9709L66.6081 37.5266H64.0655L68.9932 22.2265H72.0361L76.9857 37.5266ZM72.5122 31.1469L71.2185 27.1518C71.0816 26.7436 70.824 25.7825 70.4468 24.2695H70.4008C70.249 24.9202 70.0064 25.8814 69.674 27.1518L68.4021 31.1469H72.5122ZM89.6333 31.8747C89.6333 33.751 89.1238 35.2341 88.1038 36.3228C87.1907 37.292 86.0557 37.776 84.7021 37.776C83.2405 37.776 82.1894 37.2552 81.5511 36.2113V42H79.0994V30.1203C79.0994 28.9418 79.0683 27.7335 79.0085 26.4941H81.1647L81.3016 28.2428H81.3476C82.1652 26.9253 83.4061 26.2665 85.0713 26.2665C86.3731 26.2665 87.4598 26.7804 88.3292 27.8094C89.1974 28.8407 89.6333 30.195 89.6333 31.8747ZM87.1355 31.9644C87.1355 30.8905 86.894 30.0053 86.4087 29.3074C85.8786 28.582 85.1667 28.2187 84.2743 28.2187C83.6694 28.2187 83.1197 28.421 82.6287 28.82C82.1365 29.2223 81.8145 29.7478 81.6638 30.3985C81.5966 30.6418 81.5584 30.8923 81.55 31.1446V32.9853C81.55 33.7866 81.7961 34.4638 82.2883 35.0179C82.7805 35.5698 83.4199 35.8469 84.2065 35.8469C85.1299 35.8469 85.8487 35.4893 86.3627 34.7799C86.8779 34.0683 87.1355 33.1301 87.1355 31.9644ZM102.326 31.8747C102.326 33.751 101.816 35.2341 100.796 36.3228C99.882 37.292 98.7481 37.776 97.3935 37.776C95.9318 37.776 94.8807 37.2552 94.2425 36.2113V42H91.7907V30.1203C91.7907 28.9418 91.7596 27.7335 91.6998 26.4941H93.8561L93.9929 28.2428H94.0389C94.8554 26.9253 96.0963 26.2665 97.7626 26.2665C99.0632 26.2665 100.15 26.7804 101.022 27.8094C101.889 28.8407 102.326 30.195 102.326 31.8747ZM99.8268 31.9644C99.8268 30.8905 99.5842 30.0053 99.0989 29.3074C98.5687 28.582 97.8592 28.2187 96.9668 28.2187C96.3619 28.2187 95.8122 28.421 95.3189 28.82C94.8267 29.2223 94.5058 29.7478 94.3552 30.3985C94.2804 30.702 94.2402 30.9492 94.2402 31.1446V32.9853C94.2402 33.7866 94.4874 34.4638 94.9773 35.0179C95.4695 35.5686 96.1089 35.8469 96.8978 35.8469C97.8224 35.8469 98.5411 35.4893 99.054 34.7799C99.5692 34.0683 99.8268 33.1301 99.8268 31.9644ZM116.517 33.2348C116.517 34.5374 116.061 35.5962 115.156 36.4137C114.16 37.3058 112.77 37.753 110.988 37.753C109.341 37.753 108.021 37.4357 107.025 36.8L107.592 34.757C108.667 35.3939 109.848 35.7112 111.134 35.7112C112.058 35.7112 112.777 35.502 113.29 35.0869C113.804 34.6707 114.064 34.1143 114.064 33.4199C114.064 32.7979 113.849 32.2771 113.427 31.8528C113.002 31.4298 112.301 31.0354 111.315 30.6733C108.636 29.6742 107.295 28.2129 107.295 26.2906C107.295 25.0352 107.769 24.0074 108.714 23.2037C109.659 22.4012 110.913 22 112.472 22C113.865 22 115.025 22.2426 115.946 22.7266L115.331 24.7248C114.464 24.2557 113.485 24.0212 112.391 24.0212C111.526 24.0212 110.847 24.2338 110.362 24.6569C109.954 25.0352 109.747 25.4962 109.747 26.0435C109.747 26.647 109.982 27.1483 110.452 27.5415C110.859 27.9037 111.602 28.298 112.676 28.7211C113.994 29.2522 114.962 29.8708 115.582 30.5813C116.206 31.2918 116.517 32.1782 116.517 33.2348ZM124.644 28.3336H121.941V33.69C121.941 35.0524 122.417 35.7319 123.372 35.7319C123.81 35.7319 124.173 35.6951 124.461 35.6181L124.529 37.4794C124.046 37.6599 123.41 37.7507 122.622 37.7507C121.654 37.7507 120.897 37.4553 120.351 36.8643C119.807 36.2734 119.533 35.2835 119.533 33.8901V28.329H117.923V26.4895H119.533V24.4695L121.941 23.7429V26.4895H124.644V28.3336ZM136.813 31.9195C136.813 33.6153 136.328 35.0076 135.359 36.0963C134.346 37.2173 132.998 37.776 131.318 37.776C129.697 37.776 128.408 37.2391 127.446 36.1665C126.485 35.0915 126.004 33.7372 126.004 32.1035C126.004 30.3939 126.501 28.9936 127.491 27.9048C128.484 26.8149 129.82 26.2699 131.5 26.2699C133.119 26.2699 134.42 26.808 135.404 27.8818C136.345 28.9234 136.813 30.2686 136.813 31.9195ZM134.271 31.9759C134.271 30.9653 134.053 30.0984 133.615 29.373C133.101 28.4969 132.365 28.0589 131.411 28.0589C130.429 28.0589 129.676 28.4969 129.163 29.373C128.724 30.0984 128.505 30.9802 128.505 32.0218C128.505 33.0336 128.724 33.9027 129.163 34.6259C129.693 35.502 130.433 35.94 131.391 35.94C132.328 35.94 133.063 35.4928 133.594 34.604C134.045 33.8613 134.271 32.9887 134.271 31.9759ZM144.786 28.6498C144.531 28.6038 144.272 28.5811 144.013 28.582C143.151 28.582 142.484 28.9062 142.014 29.5592C141.607 30.1341 141.403 30.8607 141.403 31.7379V37.5266H138.951V29.9685C138.953 28.8104 138.929 27.6523 138.879 26.4953H141.015L141.105 28.6061H141.173C141.432 27.8807 141.84 27.2955 142.398 26.8574C142.91 26.4747 143.532 26.2674 144.171 26.2665C144.397 26.2665 144.602 26.2826 144.784 26.3113L144.786 28.6498ZM155.751 31.4884C155.757 31.861 155.727 32.2333 155.661 32.6001H148.306C148.334 33.69 148.69 34.5247 149.373 35.0996C149.993 35.6123 150.795 35.8699 151.779 35.8699C152.868 35.8699 153.862 35.6974 154.755 35.349L155.139 37.0494C154.095 37.5047 152.862 37.7312 151.44 37.7312C149.729 37.7312 148.385 37.2276 147.408 36.2228C146.433 35.2168 145.944 33.8648 145.944 32.1713C145.944 30.5089 146.398 29.1235 147.308 28.0186C148.26 26.839 149.547 26.2493 151.166 26.2493C152.756 26.2493 153.96 26.839 154.778 28.0186C155.426 28.9533 155.751 30.1122 155.751 31.4884ZM153.413 30.8526C153.43 30.1249 153.269 29.4983 152.937 28.9683C152.513 28.2854 151.859 27.945 150.984 27.945C150.183 27.945 149.53 28.2773 149.033 28.9441C148.625 29.4741 148.382 30.1111 148.307 30.8503L153.413 30.8526Z" fill="#171717"/>
</svg>
