<svg width="24" height="24" viewBox="0 0 24 24" fill="none" xmlns="http://www.w3.org/2000/svg">
<path d="M13.1846 6.15445C13.1846 6.38333 13.1846 7.12932 13.1846 8.18915H16.8285L16.4334 11.4374H13.1846C13.1846 16.4469 13.1846 23.1598 13.1846 23.1598H8.87238C8.87238 23.1598 8.87238 16.5357 8.87238 11.4374H6.6254V8.18915H8.87238C8.87238 6.90097 8.87238 5.98498 8.87238 5.72994C8.87238 4.51479 8.78083 3.93822 9.29716 2.99659C9.81375 2.055 11.2709 0.810411 13.7911 0.840375C16.312 0.87143 17.3745 1.11394 17.3745 1.11394L16.8285 4.5758C16.8285 4.5758 15.2188 4.15076 14.4287 4.30224C13.6396 4.45377 13.1846 4.93983 13.1846 6.15445Z" fill="#171717"/>
</svg>
