<svg width="276" height="180" viewBox="0 0 276 180" fill="none" xmlns="http://www.w3.org/2000/svg">
<g filter="url(#filter0_d_279_188)">
<rect x="37" y="19" width="216" height="120" rx="24" fill="white" shape-rendering="crispEdges"/>
<rect x="36.25" y="18.25" width="217.5" height="121.5" rx="24.75" stroke="#E9E9EB" stroke-width="1.5" shape-rendering="crispEdges"/>
<path d="M61.8587 48.6136V47.3636H70.5859V48.6136H66.9268V59H65.5178V48.6136H61.8587ZM74.8587 59.1818C74.0708 59.1818 73.3795 58.9943 72.7848 58.6193C72.1939 58.2443 71.7318 57.7197 71.3984 57.0455C71.0689 56.3712 70.9041 55.5833 70.9041 54.6818C70.9041 53.7727 71.0689 52.9792 71.3984 52.3011C71.7318 51.6231 72.1939 51.0966 72.7848 50.7216C73.3795 50.3466 74.0708 50.1591 74.8587 50.1591C75.6465 50.1591 76.3359 50.3466 76.9268 50.7216C77.5215 51.0966 77.9837 51.6231 78.3132 52.3011C78.6465 52.9792 78.8132 53.7727 78.8132 54.6818C78.8132 55.5833 78.6465 56.3712 78.3132 57.0455C77.9837 57.7197 77.5215 58.2443 76.9268 58.6193C76.3359 58.9943 75.6465 59.1818 74.8587 59.1818ZM74.8587 57.9773C75.4572 57.9773 75.9496 57.8239 76.3359 57.517C76.7223 57.2102 77.0083 56.8068 77.1939 56.3068C77.3795 55.8068 77.4723 55.2652 77.4723 54.6818C77.4723 54.0985 77.3795 53.5549 77.1939 53.0511C77.0083 52.5473 76.7223 52.1402 76.3359 51.8295C75.9496 51.5189 75.4572 51.3636 74.8587 51.3636C74.2602 51.3636 73.7678 51.5189 73.3814 51.8295C72.995 52.1402 72.709 52.5473 72.5234 53.0511C72.3378 53.5549 72.245 54.0985 72.245 54.6818C72.245 55.2652 72.3378 55.8068 72.5234 56.3068C72.709 56.8068 72.995 57.2102 73.3814 57.517C73.7678 57.8239 74.2602 57.9773 74.8587 57.9773ZM84.6555 50.2727V51.4091H80.1328V50.2727H84.6555ZM81.451 48.1818H82.7919V56.5C82.7919 56.8788 82.8468 57.1629 82.9567 57.3523C83.0703 57.5379 83.2143 57.6629 83.3885 57.7273C83.5665 57.7879 83.754 57.8182 83.951 57.8182C84.0987 57.8182 84.2199 57.8106 84.3146 57.7955C84.4093 57.7765 84.4851 57.7614 84.5419 57.75L84.8146 58.9545C84.7237 58.9886 84.5968 59.0227 84.434 59.0568C84.2711 59.0947 84.0646 59.1136 83.8146 59.1136C83.4358 59.1136 83.0646 59.0322 82.701 58.8693C82.3411 58.7064 82.0419 58.4583 81.8033 58.125C81.5684 57.7917 81.451 57.3712 81.451 56.8636V48.1818ZM89.2408 59.2045C88.6877 59.2045 88.1858 59.1004 87.7351 58.892C87.2843 58.6799 86.9264 58.375 86.6612 57.9773C86.3961 57.5758 86.2635 57.0909 86.2635 56.5227C86.2635 56.0227 86.362 55.6174 86.559 55.3068C86.7559 54.9924 87.0192 54.7462 87.3487 54.5682C87.6783 54.3902 88.0419 54.2576 88.4396 54.1705C88.8411 54.0795 89.2446 54.0076 89.6499 53.9545C90.1802 53.8864 90.6101 53.8352 90.9396 53.8011C91.273 53.7633 91.5154 53.7008 91.6669 53.6136C91.8222 53.5265 91.8999 53.375 91.8999 53.1591V53.1136C91.8999 52.553 91.7465 52.1174 91.4396 51.8068C91.1366 51.4962 90.6764 51.3409 90.059 51.3409C89.4188 51.3409 88.9169 51.4811 88.5533 51.7614C88.1896 52.0417 87.934 52.3409 87.7862 52.6591L86.5135 52.2045C86.7408 51.6742 87.0438 51.2614 87.4226 50.9659C87.8052 50.6667 88.2218 50.4583 88.6726 50.3409C89.1271 50.2197 89.5741 50.1591 90.0135 50.1591C90.2938 50.1591 90.6158 50.1932 90.9794 50.2614C91.3468 50.3258 91.701 50.4602 92.0419 50.6648C92.3866 50.8693 92.6726 51.178 92.8999 51.5909C93.1271 52.0038 93.2408 52.5568 93.2408 53.25V59H91.8999V57.8182H91.8317C91.7408 58.0076 91.5893 58.2102 91.3771 58.4261C91.165 58.642 90.8828 58.8258 90.5305 58.9773C90.1783 59.1288 89.7483 59.2045 89.2408 59.2045ZM89.4453 58C89.9756 58 90.4226 57.8958 90.7862 57.6875C91.1536 57.4792 91.4302 57.2102 91.6158 56.8807C91.8052 56.5511 91.8999 56.2045 91.8999 55.8409V54.6136C91.843 54.6818 91.718 54.7443 91.5249 54.8011C91.3355 54.8542 91.1158 54.9015 90.8658 54.9432C90.6196 54.9811 90.379 55.0152 90.1442 55.0455C89.9131 55.072 89.7256 55.0947 89.5817 55.1136C89.2332 55.1591 88.9074 55.233 88.6044 55.3352C88.3052 55.4337 88.0627 55.5833 87.8771 55.7841C87.6953 55.9811 87.6044 56.25 87.6044 56.5909C87.6044 57.0568 87.7768 57.4091 88.1215 57.6477C88.4699 57.8826 88.9112 58 89.4453 58ZM97.0291 47.3636V59H95.6882V47.3636H97.0291ZM104.167 59V47.3636H111.19V48.6136H105.576V52.5455H110.826V53.7955H105.576V57.75H111.281V59H104.167ZM114.889 53.75V59H113.548V50.2727H114.843V51.6364H114.957C115.161 51.1932 115.472 50.8371 115.889 50.5682C116.305 50.2955 116.843 50.1591 117.502 50.1591C118.093 50.1591 118.61 50.2803 119.053 50.5227C119.496 50.7614 119.841 51.125 120.087 51.6136C120.334 52.0985 120.457 52.7121 120.457 53.4545V59H119.116V53.5455C119.116 52.8598 118.938 52.3258 118.582 51.9432C118.226 51.5568 117.737 51.3636 117.116 51.3636C116.688 51.3636 116.305 51.4564 115.968 51.642C115.635 51.8277 115.371 52.0985 115.178 52.4545C114.985 52.8106 114.889 53.2424 114.889 53.75ZM126.702 50.2727V51.4091H122.18V50.2727H126.702ZM123.498 48.1818H124.839V56.5C124.839 56.8788 124.894 57.1629 125.004 57.3523C125.117 57.5379 125.261 57.6629 125.435 57.7273C125.613 57.7879 125.801 57.8182 125.998 57.8182C126.146 57.8182 126.267 57.8106 126.362 57.7955C126.456 57.7765 126.532 57.7614 126.589 57.75L126.862 58.9545C126.771 58.9886 126.644 59.0227 126.481 59.0568C126.318 59.0947 126.112 59.1136 125.862 59.1136C125.483 59.1136 125.112 59.0322 124.748 58.8693C124.388 58.7064 124.089 58.4583 123.85 58.125C123.615 57.7917 123.498 57.3712 123.498 56.8636V48.1818ZM128.719 59V50.2727H130.015V51.5909H130.106C130.265 51.1591 130.553 50.8087 130.969 50.5398C131.386 50.2708 131.856 50.1364 132.379 50.1364C132.477 50.1364 132.6 50.1383 132.748 50.142C132.896 50.1458 133.007 50.1515 133.083 50.1591V51.5227C133.038 51.5114 132.933 51.4943 132.771 51.4716C132.612 51.4451 132.443 51.4318 132.265 51.4318C131.841 51.4318 131.462 51.5208 131.129 51.6989C130.799 51.8731 130.538 52.1155 130.344 52.4261C130.155 52.733 130.06 53.0833 130.06 53.4773V59H128.719ZM134.673 59V50.2727H136.014V59H134.673ZM135.354 48.8182C135.093 48.8182 134.868 48.7292 134.678 48.5511C134.493 48.3731 134.4 48.1591 134.4 47.9091C134.4 47.6591 134.493 47.4451 134.678 47.267C134.868 47.089 135.093 47 135.354 47C135.616 47 135.839 47.089 136.025 47.267C136.214 47.4451 136.309 47.6591 136.309 47.9091C136.309 48.1591 136.214 48.3731 136.025 48.5511C135.839 48.7292 135.616 48.8182 135.354 48.8182ZM142.129 59.1818C141.288 59.1818 140.562 58.9962 139.952 58.625C139.346 58.25 138.879 57.7273 138.549 57.0568C138.223 56.3826 138.06 55.5985 138.06 54.7045C138.06 53.8106 138.223 53.0227 138.549 52.3409C138.879 51.6553 139.337 51.1212 139.924 50.7386C140.515 50.3523 141.204 50.1591 141.992 50.1591C142.447 50.1591 142.896 50.2348 143.339 50.3864C143.782 50.5379 144.185 50.7841 144.549 51.125C144.913 51.4621 145.202 51.9091 145.418 52.4659C145.634 53.0227 145.742 53.7083 145.742 54.5227V55.0909H139.015V53.9318H144.379C144.379 53.4394 144.28 53 144.083 52.6136C143.89 52.2273 143.613 51.9223 143.254 51.6989C142.898 51.4754 142.477 51.3636 141.992 51.3636C141.458 51.3636 140.996 51.4962 140.606 51.7614C140.219 52.0227 139.922 52.3636 139.714 52.7841C139.505 53.2045 139.401 53.6553 139.401 54.1364V54.9091C139.401 55.5682 139.515 56.1269 139.742 56.5852C139.973 57.0398 140.293 57.3864 140.702 57.625C141.112 57.8599 141.587 57.9773 142.129 57.9773C142.481 57.9773 142.799 57.928 143.083 57.8295C143.371 57.7273 143.619 57.5758 143.827 57.375C144.036 57.1705 144.197 56.9167 144.31 56.6136L145.606 56.9773C145.469 57.4167 145.24 57.803 144.918 58.1364C144.596 58.4659 144.199 58.7235 143.725 58.9091C143.252 59.0909 142.719 59.1818 142.129 59.1818ZM153.964 52.2273L152.759 52.5682C152.683 52.3674 152.572 52.1723 152.424 51.983C152.28 51.7898 152.083 51.6307 151.833 51.5057C151.583 51.3807 151.263 51.3182 150.873 51.3182C150.339 51.3182 149.894 51.4413 149.538 51.6875C149.185 51.9299 149.009 52.2386 149.009 52.6136C149.009 52.947 149.13 53.2102 149.373 53.4034C149.615 53.5966 149.994 53.7576 150.509 53.8864L151.805 54.2045C152.585 54.3939 153.166 54.6837 153.549 55.0739C153.932 55.4602 154.123 55.9583 154.123 56.5682C154.123 57.0682 153.979 57.5152 153.691 57.9091C153.407 58.303 153.009 58.6136 152.498 58.8409C151.987 59.0682 151.392 59.1818 150.714 59.1818C149.824 59.1818 149.087 58.9886 148.504 58.6023C147.92 58.2159 147.551 57.6515 147.396 56.9091L148.668 56.5909C148.79 57.0606 149.019 57.4129 149.356 57.6477C149.697 57.8826 150.142 58 150.691 58C151.316 58 151.812 57.8674 152.18 57.6023C152.551 57.3333 152.737 57.0114 152.737 56.6364C152.737 56.3333 152.63 56.0795 152.418 55.875C152.206 55.6667 151.88 55.5114 151.441 55.4091L149.987 55.0682C149.187 54.8788 148.6 54.5852 148.225 54.1875C147.854 53.786 147.668 53.2841 147.668 52.6818C147.668 52.1894 147.807 51.7538 148.083 51.375C148.363 50.9962 148.744 50.6989 149.225 50.483C149.71 50.267 150.259 50.1591 150.873 50.1591C151.737 50.1591 152.415 50.3485 152.907 50.7273C153.403 51.1061 153.755 51.6061 153.964 52.2273Z" fill="#171717" fill-opacity="0.8"/>
<path fill-rule="evenodd" clip-rule="evenodd" d="M169.999 46.0626C166.168 46.0626 163.062 49.1686 163.062 53.0001C163.062 56.8316 166.168 59.9376 169.999 59.9376C173.831 59.9376 176.937 56.8316 176.937 53.0001C176.937 49.1686 173.831 46.0626 169.999 46.0626ZM161.937 53.0001C161.937 48.5473 165.547 44.9376 169.999 44.9376C174.452 44.9376 178.062 48.5473 178.062 53.0001C178.062 57.4529 174.452 61.0626 169.999 61.0626C165.547 61.0626 161.937 57.4529 161.937 53.0001ZM169.999 47.9376C170.31 47.9376 170.562 48.1895 170.562 48.5001V48.7377C171.785 48.9566 172.812 49.8753 172.812 51.1251C172.812 51.4358 172.56 51.6876 172.249 51.6876C171.939 51.6876 171.687 51.4358 171.687 51.1251C171.687 50.4919 171.032 49.8126 169.999 49.8126C168.967 49.8126 168.312 50.4919 168.312 51.1251C168.312 51.7583 168.967 52.4376 169.999 52.4376C171.452 52.4376 172.812 53.4372 172.812 54.8751C172.812 56.1249 171.785 57.0436 170.562 57.2626V57.5001C170.562 57.8108 170.31 58.0626 169.999 58.0626C169.689 58.0626 169.437 57.8108 169.437 57.5001V57.2626C168.214 57.0436 167.187 56.1249 167.187 54.8751C167.187 54.5645 167.439 54.3126 167.749 54.3126C168.06 54.3126 168.312 54.5645 168.312 54.8751C168.312 55.5083 168.967 56.1876 169.999 56.1876C171.032 56.1876 171.687 55.5083 171.687 54.8751C171.687 54.2419 171.032 53.5626 169.999 53.5626C168.546 53.5626 167.187 52.563 167.187 51.1251C167.187 49.8753 168.214 48.9566 169.437 48.7377V48.5001C169.437 48.1895 169.689 47.9376 169.999 47.9376Z" fill="#171717" fill-opacity="0.8"/>
<path d="M67.256 107V87.64L62.92 90.28V86.552L67.256 83.96H70.664V107H67.256ZM84.66 107.48C83.1667 107.48 81.8227 107.128 80.628 106.424C79.4333 105.709 78.484 104.733 77.78 103.496C77.0867 102.259 76.74 100.851 76.74 99.272V91.928C76.74 90.2533 77.0867 88.7813 77.78 87.512C78.484 86.2427 79.4547 85.256 80.692 84.552C81.94 83.848 83.3747 83.496 84.996 83.496C86.212 83.496 87.3533 83.7253 88.42 84.184C89.4867 84.6427 90.4093 85.3253 91.188 86.232L88.74 88.52C88.3027 87.9547 87.7533 87.5067 87.092 87.176C86.4413 86.8347 85.7427 86.664 84.996 86.664C84.036 86.664 83.1933 86.8933 82.468 87.352C81.7427 87.8 81.172 88.392 80.756 89.128C80.3507 89.864 80.148 90.6533 80.148 91.496V95.72L79.492 94.984C80.1533 94.12 80.9747 93.4373 81.956 92.936C82.9373 92.4347 83.988 92.184 85.108 92.184C86.5373 92.184 87.812 92.52 88.932 93.192C90.0627 93.8533 90.948 94.7547 91.588 95.896C92.2387 97.0373 92.564 98.3227 92.564 99.752C92.564 101.192 92.2013 102.499 91.476 103.672C90.7613 104.835 89.8013 105.763 88.596 106.456C87.4013 107.139 86.0893 107.48 84.66 107.48ZM84.66 104.264C85.492 104.264 86.2493 104.061 86.932 103.656C87.6147 103.251 88.1587 102.707 88.564 102.024C88.9693 101.341 89.172 100.584 89.172 99.752C89.172 98.92 88.9693 98.1627 88.564 97.48C88.1693 96.7973 87.6307 96.2533 86.948 95.848C86.2653 95.4427 85.508 95.24 84.676 95.24C83.844 95.24 83.0813 95.4427 82.388 95.848C81.7053 96.2533 81.1613 96.7973 80.756 97.48C80.3507 98.1627 80.148 98.92 80.148 99.752C80.148 100.573 80.3507 101.325 80.756 102.008C81.1613 102.691 81.7053 103.24 82.388 103.656C83.0707 104.061 83.828 104.264 84.66 104.264ZM104.647 107.48C103.079 107.48 101.692 107.139 100.487 106.456C99.2817 105.763 98.3323 104.813 97.639 103.608C96.9563 102.403 96.615 101.016 96.615 99.448V91.512C96.615 89.944 96.9563 88.5573 97.639 87.352C98.3323 86.1467 99.2817 85.2027 100.487 84.52C101.692 83.8267 103.079 83.48 104.647 83.48C106.215 83.48 107.602 83.8267 108.807 84.52C110.012 85.2027 110.956 86.1467 111.639 87.352C112.332 88.5573 112.679 89.944 112.679 91.512V99.448C112.679 101.016 112.332 102.403 111.639 103.608C110.956 104.813 110.012 105.763 108.807 106.456C107.602 107.139 106.215 107.48 104.647 107.48ZM104.647 104.28C105.5 104.28 106.274 104.077 106.967 103.672C107.671 103.256 108.231 102.701 108.647 102.008C109.063 101.304 109.271 100.52 109.271 99.656V91.272C109.271 90.4187 109.063 89.6453 108.647 88.952C108.231 88.248 107.671 87.6933 106.967 87.288C106.274 86.872 105.5 86.664 104.647 86.664C103.794 86.664 103.015 86.872 102.311 87.288C101.618 87.6933 101.063 88.248 100.647 88.952C100.231 89.6453 100.023 90.4187 100.023 91.272V99.656C100.023 100.52 100.231 101.304 100.647 102.008C101.063 102.701 101.618 103.256 102.311 103.672C103.015 104.077 103.794 104.28 104.647 104.28ZM125.178 107.48C123.61 107.48 122.224 107.139 121.018 106.456C119.813 105.763 118.864 104.813 118.17 103.608C117.488 102.403 117.146 101.016 117.146 99.448V91.512C117.146 89.944 117.488 88.5573 118.17 87.352C118.864 86.1467 119.813 85.2027 121.018 84.52C122.224 83.8267 123.61 83.48 125.178 83.48C126.746 83.48 128.133 83.8267 129.338 84.52C130.544 85.2027 131.488 86.1467 132.17 87.352C132.864 88.5573 133.21 89.944 133.21 91.512V99.448C133.21 101.016 132.864 102.403 132.17 103.608C131.488 104.813 130.544 105.763 129.338 106.456C128.133 107.139 126.746 107.48 125.178 107.48ZM125.178 104.28C126.032 104.28 126.805 104.077 127.498 103.672C128.202 103.256 128.762 102.701 129.178 102.008C129.594 101.304 129.802 100.52 129.802 99.656V91.272C129.802 90.4187 129.594 89.6453 129.178 88.952C128.762 88.248 128.202 87.6933 127.498 87.288C126.805 86.872 126.032 86.664 125.178 86.664C124.325 86.664 123.546 86.872 122.842 87.288C122.149 87.6933 121.594 88.248 121.178 88.952C120.762 89.6453 120.554 90.4187 120.554 91.272V99.656C120.554 100.52 120.762 101.304 121.178 102.008C121.594 102.701 122.149 103.256 122.842 103.672C123.546 104.077 124.325 104.28 125.178 104.28ZM143.278 102.728V96.808H137.358V94.12H143.278V88.232H145.966V94.12H151.87V96.808H145.966V102.728H143.278Z" fill="#171717"/>
</g>
<defs>
<filter id="filter0_d_279_188" x="0" y="0" width="276" height="180" filterUnits="userSpaceOnUse" color-interpolation-filters="sRGB">
<feFlood flood-opacity="0" result="BackgroundImageFix"/>
<feColorMatrix in="SourceAlpha" type="matrix" values="0 0 0 0 0 0 0 0 0 0 0 0 0 0 0 0 0 0 127 0" result="hardAlpha"/>
<feOffset dx="-7" dy="11"/>
<feGaussianBlur stdDeviation="14.25"/>
<feComposite in2="hardAlpha" operator="out"/>
<feColorMatrix type="matrix" values="0 0 0 0 0 0 0 0 0 0 0 0 0 0 0 0 0 0 0.05 0"/>
<feBlend mode="normal" in2="BackgroundImageFix" result="effect1_dropShadow_279_188"/>
<feBlend mode="normal" in="SourceGraphic" in2="effect1_dropShadow_279_188" result="shape"/>
</filter>
</defs>
</svg>
