<svg width="328" height="251" viewBox="0 0 328 251" fill="none" xmlns="http://www.w3.org/2000/svg">
<g filter="url(#filter0_d_279_202)">
<rect x="22" y="46.1582" width="228" height="168" rx="24" transform="rotate(-6.0823 22 46.1582)" fill="white" shape-rendering="crispEdges"/>
<rect x="21.1748" y="45.4919" width="229.5" height="169.5" rx="24.75" transform="rotate(-6.0823 21.1748 45.4919)" stroke="#E9E9EB" stroke-width="1.5" shape-rendering="crispEdges"/>
<path d="M50.1051 72.9447L49.9726 71.7018L58.6508 70.7771L58.7832 72.02L55.1447 72.4077L56.2452 82.7356L54.8441 82.8849L53.7436 72.557L50.1051 72.9447ZM64.1517 82.076C63.3682 82.1595 62.6609 82.0463 62.0299 81.7364C61.4025 81.4261 60.8874 80.9534 60.4845 80.3183C60.0854 79.6827 59.8381 78.9168 59.7426 78.0203C59.6462 77.1163 59.726 76.3098 59.9818 75.6007C60.2415 74.8911 60.6452 74.3186 61.193 73.8831C61.7447 73.4472 62.4122 73.1875 63.1956 73.104C63.9791 73.0206 64.6845 73.134 65.3118 73.4442C65.9429 73.7541 66.4582 74.2287 66.8577 74.868C67.261 75.5069 67.5108 76.2783 67.6071 77.1823C67.7027 78.0787 67.6204 78.8798 67.3604 79.5856C67.1041 80.291 66.7002 80.8616 66.1486 81.2975C65.6007 81.733 64.9351 81.9925 64.1517 82.076ZM64.024 80.8782C64.6191 80.8148 65.0925 80.6101 65.4442 80.2641C65.7959 79.918 66.0375 79.4866 66.1691 78.9697C66.3007 78.4529 66.3356 77.9044 66.2738 77.3244C66.212 76.7443 66.0621 76.2137 65.8241 75.7324C65.5862 75.2511 65.2587 74.8765 64.8416 74.6086C64.4245 74.3406 63.9184 74.2384 63.3233 74.3018C62.7281 74.3652 62.255 74.5718 61.9037 74.9216C61.5524 75.2714 61.3112 75.7066 61.18 76.2272C61.0488 76.7479 61.0141 77.2982 61.0759 77.8782C61.1377 78.4583 61.2874 78.9871 61.5249 79.4646C61.7625 79.9421 62.0896 80.313 62.5063 80.5771C62.923 80.8413 63.4289 80.9416 64.024 80.8782ZM72.9494 72.179L73.0698 73.309L68.5725 73.7882L68.4521 72.6582L72.9494 72.179ZM69.5413 70.4394L70.8747 70.2973L71.7561 78.5687C71.7962 78.9453 71.8809 79.222 72.0102 79.3987C72.1429 79.5712 72.2993 79.6803 72.4793 79.7258C72.6628 79.7672 72.8525 79.7775 73.0483 79.7566C73.1952 79.741 73.3149 79.7206 73.4075 79.6955C73.4997 79.6666 73.5734 79.6435 73.6287 79.6262L74.0275 80.7951C73.9407 80.8386 73.8181 80.886 73.6598 80.9371C73.5018 80.992 73.2986 81.0327 73.05 81.0592C72.6733 81.0994 72.2956 81.0577 71.9167 80.9343C71.5416 80.8105 71.2178 80.5955 70.9452 80.2893C70.6763 79.9827 70.515 79.5771 70.4612 79.0723L69.5413 70.4394ZM78.4552 80.5747C77.9053 80.6333 77.3952 80.5829 76.9249 80.4235C76.4542 80.2603 76.0659 79.995 75.7601 79.6277C75.4539 79.2565 75.2707 78.7884 75.2105 78.2234C75.1576 77.7263 75.2125 77.3128 75.3755 76.9831C75.538 76.6496 75.7737 76.3769 76.0826 76.1649C76.3914 75.953 76.7389 75.7826 77.1252 75.6538C77.5148 75.5209 77.9083 75.4066 78.3057 75.3109C78.8258 75.1869 79.2479 75.0905 79.572 75.0217C79.8994 74.9487 80.1339 74.8609 80.2753 74.7582C80.4205 74.6551 80.4816 74.4962 80.4588 74.2815L80.454 74.2363C80.3946 73.6789 80.1959 73.262 79.8578 72.9856C79.5236 72.7089 79.0495 72.6032 78.4356 72.6686C77.799 72.7365 77.3148 72.929 76.9829 73.2463C76.651 73.5635 76.4285 73.8882 76.3153 74.2202L75.0016 73.9031C75.1714 73.3517 75.429 72.909 75.7743 72.5751C76.123 72.237 76.5153 71.9857 76.9511 71.8212C77.3902 71.6525 77.8282 71.5448 78.2652 71.4983C78.5439 71.4686 78.8676 71.4684 79.2365 71.4976C79.6086 71.5227 79.9751 71.6189 80.3357 71.7862C80.7002 71.9531 81.0172 72.2297 81.287 72.6162C81.5567 73.0027 81.7283 73.5406 81.8018 74.2298L82.411 79.9475L81.0777 80.0896L80.9524 78.9144L80.8846 78.9216C80.8143 79.1196 80.6851 79.3371 80.4971 79.5743C80.309 79.8115 80.0479 80.0241 79.7136 80.212C79.3794 80.4 78.9599 80.5209 78.4552 80.5747ZM78.531 79.3553C79.0583 79.2991 79.4917 79.1481 79.8312 78.9024C80.1745 78.6563 80.421 78.3596 80.5706 78.0123C80.724 77.6645 80.7815 77.3098 80.7429 76.9482L80.6129 75.7279C80.5636 75.8017 80.4459 75.8771 80.2599 75.9541C80.0772 76.0269 79.8637 76.0972 79.6195 76.1651C79.3787 76.2289 79.1432 76.2883 78.9128 76.3433C78.6859 76.3941 78.5019 76.4366 78.3607 76.4707C78.019 76.5528 77.7029 76.6608 77.4124 76.7946C77.1253 76.9242 76.9001 77.0987 76.7368 77.318C76.5769 77.5331 76.515 77.8102 76.5511 78.1492C76.6005 78.6124 76.8092 78.9445 77.1772 79.1452C77.5486 79.3418 77.9999 79.4119 78.531 79.3553ZM84.9451 67.9752L86.178 79.5461L84.8447 79.6882L83.6117 68.1173L84.9451 67.9752ZM93.2756 78.7898L92.0427 67.2189L99.0259 66.4748L99.1583 67.7178L93.5763 68.3126L93.9929 72.2223L99.2133 71.666L99.3458 72.909L94.1253 73.4652L94.5444 77.3975L100.217 76.7931L100.349 78.036L93.2756 78.7898ZM102.673 69.0117L105.13 72.3383L106.831 68.5686L108.368 68.4049L106.028 73.0426L109.293 77.083L107.756 77.2468L105.318 74.101L103.598 77.6899L102.061 77.8536L104.356 73.2208L101.136 69.1755L102.673 69.0117ZM111.542 80.1346L110.271 68.2022L111.559 68.0649L111.706 69.4435L111.864 69.4266C111.946 69.2655 112.061 69.059 112.209 68.807C112.361 68.5508 112.591 68.313 112.899 68.0935C113.21 67.8699 113.649 67.7279 114.214 67.6677C114.944 67.5899 115.608 67.7039 116.204 68.0099C116.801 68.3158 117.291 68.7874 117.675 69.4245C118.059 70.0616 118.3 70.836 118.397 71.7475C118.495 72.6665 118.423 73.4798 118.182 74.1873C117.941 74.8911 117.563 75.457 117.049 75.8851C116.534 76.3095 115.915 76.5602 115.192 76.6373C114.635 76.6967 114.179 76.6519 113.824 76.5031C113.468 76.3505 113.188 76.1652 112.982 75.9472C112.775 75.7254 112.615 75.5406 112.5 75.3928L112.387 75.4049L112.876 79.9925L111.542 80.1346ZM112.044 72.4016C112.114 73.0569 112.271 73.6249 112.517 74.1054C112.762 74.5821 113.084 74.942 113.483 75.1852C113.882 75.4246 114.349 75.5158 114.884 75.4588C115.441 75.3994 115.891 75.2029 116.232 74.8694C116.577 74.5317 116.817 74.1023 116.952 73.5813C117.091 73.0561 117.127 72.4847 117.061 71.867C116.996 71.2568 116.843 70.7169 116.603 70.2473C116.366 69.7736 116.043 69.4136 115.636 69.1675C115.232 68.9172 114.748 68.8222 114.183 68.8824C113.641 68.9402 113.2 69.1262 112.86 69.4405C112.52 69.751 112.281 70.1611 112.145 70.6709C112.009 71.1768 111.975 71.7537 112.044 72.4016ZM124.548 75.6403C123.712 75.7294 122.971 75.6217 122.325 75.3172C121.683 75.0085 121.163 74.5383 120.764 73.9065C120.368 73.2706 120.123 72.5082 120.029 71.6193C119.934 70.7304 120.012 69.9297 120.264 69.2172C120.519 68.5005 120.918 67.9209 121.462 67.4782C122.008 67.0314 122.673 66.7663 123.457 66.6828C123.909 66.6347 124.363 66.6624 124.82 66.7661C125.277 66.8698 125.704 67.0719 126.102 67.3724C126.499 67.6691 126.834 68.0828 127.108 68.6136C127.382 69.1444 127.562 69.8147 127.648 70.6246L127.708 71.1895L121.019 71.9023L120.896 70.7498L126.229 70.1815C126.177 69.6918 126.033 69.2653 125.796 68.902C125.563 68.5383 125.256 68.2644 124.874 68.0803C124.496 67.8958 124.067 67.8292 123.584 67.8806C123.053 67.9372 122.608 68.118 122.248 68.423C121.891 68.7238 121.632 69.0943 121.469 69.5345C121.307 69.9746 121.251 70.4339 121.302 70.9122L121.384 71.6806C121.454 72.336 121.626 72.8795 121.9 73.3112C122.178 73.7387 122.533 74.0494 122.965 74.2434C123.397 74.4335 123.882 74.4999 124.421 74.4425C124.771 74.4052 125.082 74.3225 125.354 74.1945C125.63 74.0623 125.86 73.8854 126.046 73.6637C126.232 73.4382 126.365 73.1688 126.446 72.8554L127.772 73.0797C127.683 73.5311 127.497 73.9396 127.212 74.3051C126.926 74.6669 126.558 74.9652 126.107 75.1999C125.656 75.4309 125.136 75.5777 124.548 75.6403ZM130.928 69.498L131.484 74.7184L130.151 74.8605L129.226 66.1824L130.514 66.0451L130.659 67.401L130.772 67.389C130.928 66.9266 131.199 66.5397 131.585 66.2281C131.97 65.9128 132.491 65.7202 133.146 65.6503C133.734 65.5877 134.261 65.6535 134.727 65.8476C135.193 66.0379 135.574 66.363 135.871 66.8228C136.167 67.2788 136.355 67.8759 136.433 68.6142L137.021 74.1284L135.688 74.2705L135.11 68.8467C135.037 68.1649 134.803 67.6527 134.409 67.31C134.014 66.9635 133.507 66.8232 132.89 66.889C132.464 66.9344 132.093 67.0672 131.778 67.2875C131.466 67.5074 131.233 67.8046 131.079 68.1791C130.924 68.5536 130.874 68.9933 130.928 69.498ZM144.887 66.4792L143.725 66.9458C143.629 66.7542 143.497 66.5721 143.33 66.3994C143.166 66.2226 142.953 66.0852 142.692 65.9874C142.43 65.8896 142.105 65.8614 141.717 65.9027C141.186 65.9593 140.756 66.1289 140.428 66.4114C140.104 66.6898 139.961 67.0155 140.001 67.3884C140.036 67.7198 140.185 67.9687 140.446 68.1352C140.708 68.3016 141.102 68.4215 141.627 68.495L142.949 68.6741C143.745 68.7798 144.354 69.0063 144.776 69.3537C145.197 69.6974 145.44 70.1724 145.505 70.7788C145.558 71.276 145.462 71.7357 145.218 72.1579C144.977 72.5798 144.614 72.9308 144.13 73.2109C143.645 73.4911 143.066 73.6671 142.392 73.739C141.507 73.8333 140.754 73.7192 140.133 73.3969C139.512 73.0745 139.085 72.5524 138.852 71.8306L140.083 71.3794C140.254 71.8336 140.519 72.1596 140.879 72.3574C141.243 72.5548 141.698 72.6244 142.244 72.5662C142.866 72.5 143.345 72.3156 143.682 72.013C144.023 71.7062 144.173 71.3664 144.134 70.9935C144.101 70.6922 143.969 70.4511 143.737 70.2701C143.504 70.0855 143.163 69.9655 142.715 69.9104L141.233 69.7255C140.418 69.6219 139.803 69.3922 139.388 69.0364C138.976 68.6765 138.739 68.1971 138.675 67.5982C138.623 67.1086 138.714 66.6608 138.949 66.2548C139.187 65.8485 139.535 65.5125 139.99 65.2468C140.449 64.9807 140.984 64.8152 141.594 64.7502C142.453 64.6587 143.147 64.7751 143.677 65.0996C144.211 65.4237 144.614 65.8836 144.887 66.4792ZM151.427 72.7762C150.591 72.8653 149.85 72.7576 149.205 72.4531C148.562 72.1444 148.042 71.6742 147.643 71.0424C147.248 70.4065 147.002 69.6441 146.908 68.7551C146.813 67.8662 146.892 67.0655 147.143 66.353C147.398 65.6364 147.797 65.0567 148.341 64.6141C148.887 64.1673 149.552 63.9022 150.336 63.8187C150.788 63.7705 151.242 63.7983 151.699 63.902C152.156 64.0057 152.583 64.2078 152.981 64.5082C153.378 64.8049 153.713 65.2187 153.987 65.7495C154.261 66.2803 154.441 66.9506 154.527 67.7604L154.587 68.3254L147.898 69.0382L147.775 67.8856L153.109 67.3173C153.056 66.8277 152.912 66.4012 152.675 66.0379C152.442 65.6741 152.135 65.4002 151.753 65.2161C151.376 65.0316 150.946 64.9651 150.463 65.0164C149.932 65.073 149.487 65.2538 149.127 65.5588C148.771 65.8597 148.511 66.2301 148.348 66.6703C148.186 67.1105 148.13 67.5697 148.181 68.0481L148.263 68.8165C148.333 69.4718 148.505 70.0154 148.779 70.447C149.057 70.8745 149.412 71.1853 149.844 71.3792C150.276 71.5694 150.761 71.6358 151.3 71.5784C151.65 71.5411 151.961 71.4584 152.233 71.3304C152.509 71.1982 152.739 71.0212 152.925 70.7995C153.111 70.574 153.244 70.3046 153.325 69.9913L154.652 70.2156C154.563 70.667 154.376 71.0754 154.091 71.441C153.806 71.8028 153.437 72.1011 152.986 72.3358C152.535 72.5668 152.015 72.7136 151.427 72.7762ZM162.459 64.6067L161.298 65.0734C161.201 64.8818 161.069 64.6996 160.902 64.5269C160.739 64.3501 160.526 64.2128 160.264 64.115C160.002 64.0172 159.677 63.9889 159.289 64.0303C158.758 64.0869 158.329 64.2564 158.001 64.539C157.676 64.8174 157.534 65.143 157.573 65.5159C157.609 65.8474 157.757 66.0963 158.019 66.2627C158.28 66.4291 158.674 66.549 159.2 66.6225L160.522 66.8017C161.318 66.9073 161.927 67.1338 162.348 67.4813C162.77 67.8249 163.013 68.2999 163.077 68.9064C163.13 69.4035 163.035 69.8632 162.79 70.2855C162.549 70.7073 162.187 71.0583 161.702 71.3385C161.218 71.6186 160.639 71.7947 159.964 71.8665C159.079 71.9608 158.326 71.8468 157.705 71.5244C157.084 71.202 156.657 70.6799 156.424 69.9581L157.656 69.5069C157.826 69.9611 158.091 70.2871 158.451 70.4849C158.815 70.6823 159.27 70.7519 159.817 70.6937C160.438 70.6275 160.917 70.4431 161.255 70.1405C161.595 69.8338 161.746 69.4939 161.706 69.1211C161.674 68.8197 161.542 68.5786 161.309 68.3977C161.076 68.213 160.736 68.0931 160.288 68.038L158.805 67.8531C157.99 67.7494 157.376 67.5197 156.961 67.164C156.549 66.8041 156.311 66.3247 156.247 65.7258C156.195 65.2361 156.286 64.7883 156.521 64.3824C156.76 63.976 157.107 63.64 157.562 63.3743C158.022 63.1083 158.556 62.9427 159.167 62.8777C160.025 62.7862 160.72 62.9027 161.249 63.2272C161.783 63.5512 162.186 64.0111 162.459 64.6067Z" fill="#595959"/>
<g clip-path="url(#clip0_279_202)">
<path fill-rule="evenodd" clip-rule="evenodd" d="M178 56.7505C174.19 57.1565 171.43 60.5742 171.836 64.3841C172.242 68.1939 175.66 70.9534 179.47 70.5474C183.28 70.1415 186.039 66.7238 185.633 62.9139C185.227 59.104 181.81 56.3446 178 56.7505ZM170.718 64.5033C170.246 60.0755 173.453 56.1037 177.881 55.6319C182.308 55.1601 186.28 58.367 186.752 62.7947C187.224 67.2225 184.017 71.1943 179.589 71.6661C175.161 72.1379 171.189 68.931 170.718 64.5033ZM178.198 58.615C178.507 58.5821 178.784 58.8058 178.817 59.1147L178.842 59.3509C180.082 59.4391 181.2 60.2438 181.333 61.4865C181.366 61.7954 181.142 62.0726 180.833 62.1055C180.524 62.1384 180.247 61.9146 180.214 61.6057C180.147 60.9761 179.424 60.37 178.397 60.4794C177.37 60.5888 176.791 61.3337 176.858 61.9633C176.925 62.593 177.649 63.199 178.675 63.0896C180.12 62.9357 181.578 63.7856 181.73 65.2154C181.863 66.4582 180.938 67.4805 179.746 67.8279L179.771 68.064C179.804 68.3729 179.58 68.6501 179.271 68.683C178.962 68.7159 178.685 68.4922 178.652 68.1832L178.627 67.9471C177.388 67.8589 176.269 67.0542 176.137 65.8114C176.104 65.5025 176.328 65.2254 176.637 65.1925C176.945 65.1596 177.223 65.3833 177.255 65.6922C177.323 66.3219 178.046 66.9279 179.073 66.8185C180.099 66.7092 180.679 65.9643 180.611 65.3346C180.544 64.705 179.821 64.0989 178.794 64.2083C177.35 64.3623 175.892 63.5123 175.739 62.0825C175.607 60.8398 176.531 59.8174 177.724 59.4701L177.699 59.2339C177.666 58.925 177.889 58.6479 178.198 58.615Z" fill="#595959"/>
</g>
<path d="M54.9752 107.972L60.5914 107.374C60.8142 107.35 61.0911 107.331 61.4221 107.317C61.7521 107.293 62.0631 107.292 62.3551 107.315C63.66 107.379 64.7728 107.706 65.6937 108.294C66.624 108.871 67.3556 109.646 67.8883 110.619C68.42 111.581 68.7514 112.678 68.8825 113.908C69.0735 115.701 68.8066 117.274 68.082 118.627C67.3562 119.971 66.1568 120.946 64.4837 121.553C64.0814 121.703 63.7069 121.813 63.3603 121.882C63.0136 121.951 62.6017 122.011 62.1244 122.062L56.54 122.657L56.2043 119.507L61.6933 118.922C61.8948 118.901 62.1217 118.866 62.374 118.817C62.6369 118.768 62.8822 118.704 63.1099 118.626C63.7812 118.383 64.2958 118.028 64.6537 117.561C65.0221 117.092 65.2666 116.568 65.387 115.986C65.518 115.404 65.5535 114.831 65.4936 114.269C65.4337 113.707 65.2784 113.155 65.0276 112.613C64.7873 112.07 64.4378 111.609 63.9789 111.229C63.5307 110.847 62.9534 110.614 62.247 110.528C62.0068 110.489 61.7531 110.474 61.4856 110.481C61.2288 110.486 60.9997 110.5 60.7981 110.522L55.3092 111.107L54.9752 107.972ZM56.54 122.657L60.0021 121.323L71.3377 129.399L66.6283 129.901L56.54 122.657ZM55.9753 116.603L55.699 114.01L71.2907 112.348L71.5671 114.941L55.9753 116.603ZM60.4859 110.008L60.2096 107.415L70.551 106.313L70.8274 108.906L60.4859 110.008ZM76.2618 128.858L75.9624 125.897L84.9852 115.893C85.7156 115.097 86.1895 114.36 86.4069 113.682C86.6349 113.003 86.7145 112.341 86.6455 111.694C86.5585 110.877 86.3002 110.164 85.8707 109.556C85.44 108.936 84.8861 108.47 84.209 108.156C83.5319 107.842 82.7797 107.729 81.9524 107.817C81.1039 107.907 80.367 108.19 79.7417 108.664C79.1259 109.127 78.6674 109.706 78.3663 110.404C78.0651 111.101 77.9605 111.831 78.0525 112.593L74.6478 112.956C74.4895 111.471 74.6852 110.136 75.2347 108.951C75.7938 107.755 76.6286 106.781 77.7393 106.029C78.8488 105.267 80.1619 104.806 81.6787 104.644C83.1212 104.49 84.4502 104.681 85.6658 105.217C86.8802 105.742 87.8767 106.537 88.6553 107.602C89.4444 108.665 89.9164 109.924 90.0713 111.377C90.1832 112.427 90.1402 113.332 89.9424 114.094C89.7446 114.855 89.4033 115.578 88.9184 116.262C88.4336 116.947 87.8165 117.699 87.0672 118.519L80.0991 126.213L79.6315 125.297L91.4207 124.041L91.7581 127.207L76.2618 128.858ZM102.033 126.563C100.898 126.684 99.8094 126.585 98.7672 126.267C97.7239 125.939 96.7939 125.415 95.9772 124.698C95.1712 123.979 94.5462 123.097 94.1021 122.05L97.221 120.816C97.6337 121.77 98.2501 122.471 99.0703 122.92C99.8893 123.359 100.765 123.523 101.697 123.413C102.534 123.313 103.25 123.038 103.846 122.588C104.442 122.139 104.885 121.571 105.177 120.886C105.468 120.19 105.568 119.417 105.477 118.569C105.342 117.296 104.832 116.288 103.948 115.546C103.075 114.802 102.002 114.498 100.73 114.634C100.369 114.672 100.003 114.765 99.6329 114.912C99.2729 115.057 98.9376 115.232 98.6269 115.437L96.788 112.978L104.109 104.973L104.561 105.891L93.4238 107.077L93.0865 103.911L106.864 102.443L107.202 105.609L101.176 112.784L101.029 111.706C102.472 111.552 103.758 111.742 104.887 112.276C106.016 112.799 106.925 113.582 107.615 114.624C108.315 115.654 108.737 116.848 108.882 118.206C109.038 119.67 108.832 121.006 108.263 122.214C107.705 123.421 106.883 124.41 105.796 125.18C104.719 125.949 103.465 126.41 102.033 126.563ZM123.49 123.842L123.064 119.849L112.723 120.951L112.387 117.8L118.153 101.24L121.956 100.835L116.19 117.395L122.729 116.698L122.068 110.494L125.44 110.134L126.102 116.339L128.377 116.097L128.712 119.247L126.437 119.489L126.863 123.483L123.49 123.842ZM132.909 122.838L132.534 119.322L136.05 118.948L136.425 122.464L132.909 122.838ZM146.396 97.7641C147.871 97.607 149.24 97.8205 150.503 98.4046C151.766 98.978 152.813 99.8426 153.644 100.998C154.475 102.154 154.975 103.522 155.143 105.103L155.919 112.389C156.098 114.065 155.905 115.572 155.339 116.908C154.783 118.233 153.922 119.312 152.755 120.144C151.6 120.975 150.216 121.477 148.603 121.649C147.394 121.778 146.235 121.67 145.126 121.327C144.017 120.984 143.021 120.404 142.14 119.586L144.348 117.05C144.843 117.566 145.437 117.958 146.131 118.227C146.825 118.497 147.538 118.592 148.269 118.514C149.213 118.414 150.022 118.097 150.694 117.564C151.378 117.03 151.882 116.376 152.207 115.601C152.532 114.826 152.65 114.02 152.561 113.182L152.113 108.982L152.859 109.642C152.293 110.571 151.549 111.337 150.626 111.94C149.703 112.542 148.685 112.903 147.571 113.021C146.14 113.174 144.832 112.981 143.648 112.442C142.464 111.903 141.488 111.101 140.72 110.035C139.952 108.969 139.492 107.72 139.34 106.288C139.187 104.856 139.41 103.523 140.008 102.29C140.606 101.058 141.462 100.033 142.577 99.217C143.691 98.401 144.964 97.9167 146.396 97.7641ZM146.739 100.978C145.911 101.066 145.174 101.348 144.528 101.825C143.891 102.29 143.407 102.883 143.076 103.605C142.746 104.327 142.624 105.101 142.713 105.928C142.801 106.756 143.083 107.493 143.56 108.139C144.035 108.775 144.634 109.258 145.355 109.589C146.077 109.92 146.852 110.041 147.679 109.953C148.506 109.865 149.238 109.583 149.874 109.108C150.51 108.632 150.993 108.034 151.324 107.312C151.653 106.579 151.774 105.8 151.686 104.972C151.599 104.156 151.318 103.429 150.842 102.793C150.377 102.156 149.784 101.672 149.062 101.342C148.341 101.011 147.566 100.89 146.739 100.978ZM168.589 119.519C167.094 119.678 165.736 119.523 164.517 119.052C163.307 118.569 162.316 117.828 161.544 116.826C160.783 115.824 160.327 114.618 160.177 113.207C160.037 111.892 160.216 110.655 160.715 109.497C161.214 108.339 162.04 107.382 163.193 106.626L163.251 107.779C162.211 107.278 161.378 106.605 160.751 105.76C160.134 104.903 159.766 103.913 159.646 102.788C159.507 101.484 159.689 100.322 160.192 99.303C160.695 98.284 161.449 97.4581 162.454 96.8254C163.47 96.1915 164.667 95.8011 166.046 95.6542C167.425 95.5073 168.673 95.6371 169.789 96.0439C170.905 96.4506 171.816 97.099 172.522 97.9892C173.228 98.8793 173.651 99.9767 173.79 101.281C173.91 102.406 173.769 103.445 173.366 104.4C172.964 105.355 172.281 106.194 171.318 106.919L171.151 105.81C172.424 106.276 173.431 107.026 174.175 108.063C174.917 109.089 175.358 110.259 175.498 111.574C175.649 112.985 175.452 114.261 174.909 115.402C174.365 116.544 173.548 117.478 172.456 118.206C171.363 118.923 170.074 119.361 168.589 119.519ZM168.252 116.353C169.482 116.222 170.444 115.782 171.136 115.032C171.827 114.272 172.104 113.245 171.966 111.951C171.828 110.657 171.342 109.711 170.505 109.113C169.679 108.504 168.645 108.266 167.404 108.398C166.163 108.53 165.198 108.982 164.507 109.753C163.827 110.512 163.555 111.538 163.693 112.832C163.831 114.126 164.318 115.072 165.154 115.669C165.989 116.256 167.022 116.484 168.252 116.353ZM167.065 105.216C168.115 105.104 168.936 104.754 169.528 104.165C170.129 103.565 170.372 102.729 170.258 101.658C170.144 100.586 169.73 99.8207 169.016 99.3604C168.311 98.8884 167.434 98.7084 166.384 98.8203C165.334 98.9322 164.509 99.2936 163.909 99.9046C163.308 100.505 163.064 101.341 163.178 102.412C163.292 103.483 163.706 104.249 164.421 104.709C165.134 105.159 166.015 105.328 167.065 105.216ZM180.346 117.784L177.904 94.8734L181.229 94.519L182.369 105.211L190.823 93.4968L194.96 93.056L186.017 105.321L198.149 115.887L193.885 116.341L182.504 106.483L183.671 117.429L180.346 117.784Z" fill="#171717"/>
<rect x="58.5797" y="162.94" width="24" height="24" rx="12" transform="rotate(-6.0823 58.5797 162.94)" fill="#9E77ED"/>
<path fill-rule="evenodd" clip-rule="evenodd" d="M68.257 171.904C68.0836 171.689 68.1171 171.375 68.332 171.201L71.9997 168.24C72.2146 168.066 72.5294 168.1 72.7028 168.315L75.6642 171.983C75.8377 172.197 75.8041 172.512 75.5893 172.686C75.3744 172.859 75.0597 172.826 74.8862 172.611L72.6831 169.882L72.1046 175.311C72.0542 175.784 72.1235 176.52 72.4841 177.153C72.8291 177.758 73.458 178.305 74.6218 178.429C74.8964 178.458 75.0953 178.704 75.066 178.979C75.0368 179.253 74.7904 179.452 74.5158 179.423C73.028 179.264 72.1173 178.529 71.6151 177.648C71.1286 176.794 71.0429 175.837 71.1103 175.205L71.6887 169.776L68.9602 171.979C68.7453 172.153 68.4305 172.119 68.257 171.904Z" fill="#171717"/>
<path d="M97.4518 176.891L97.3462 175.825L102.026 170.595C102.429 170.145 102.683 169.732 102.787 169.356C102.897 168.974 102.93 168.584 102.888 168.186C102.838 167.714 102.681 167.299 102.418 166.941C102.154 166.583 101.822 166.313 101.422 166.13C101.021 165.942 100.587 165.873 100.121 165.923C99.6328 165.975 99.2103 166.138 98.8534 166.412C98.4964 166.686 98.2269 167.026 98.0448 167.431C97.8681 167.836 97.8064 168.264 97.8597 168.714L96.6665 168.841C96.5924 168.147 96.6904 167.506 96.9605 166.919C97.2305 166.333 97.6299 165.853 98.1587 165.48C98.687 165.102 99.3064 164.875 100.017 164.8C100.712 164.726 101.352 164.824 101.939 165.094C102.53 165.358 103.015 165.751 103.392 166.274C103.775 166.791 104.002 167.389 104.074 168.068C104.125 168.545 104.112 168.973 104.034 169.352C103.961 169.724 103.819 170.08 103.609 170.419C103.403 170.752 103.132 171.102 102.796 171.471L98.6401 176.113L98.4062 175.655L104.81 174.973L104.93 176.095L97.4518 176.891ZM109.948 175.801C109.38 175.862 108.847 175.817 108.348 175.666C107.85 175.515 107.408 175.273 107.024 174.938C106.639 174.598 106.339 174.177 106.125 173.674L107.203 173.222C107.454 173.769 107.813 174.165 108.279 174.41C108.75 174.655 109.261 174.743 109.811 174.673C110.319 174.609 110.745 174.448 111.088 174.191C111.436 173.935 111.687 173.602 111.842 173.194C111.997 172.786 112.047 172.327 111.993 171.818C111.91 171.039 111.615 170.437 111.109 170.014C110.607 169.584 109.985 169.409 109.243 169.488C109.036 169.511 108.822 169.563 108.6 169.645C108.377 169.723 108.173 169.822 107.988 169.944L107.3 169.076L111.317 164.489L111.558 164.946L105.72 165.568L105.6 164.446L112.219 163.741L112.34 164.878L108.853 168.999L108.788 168.539C109.572 168.354 110.282 168.369 110.917 168.586C111.551 168.803 112.069 169.182 112.47 169.724C112.876 170.26 113.12 170.915 113.202 171.689C113.28 172.421 113.19 173.085 112.932 173.681C112.678 174.271 112.293 174.755 111.775 175.132C111.257 175.504 110.648 175.727 109.948 175.801ZM120.682 174.424L120.445 172.205L115.084 172.776L114.965 171.662L117.934 163.132L119.247 162.992L116.278 171.523L120.327 171.091L119.971 167.75L121.148 167.625L121.504 170.966L122.753 170.833L122.872 171.946L121.623 172.079L121.859 174.299L120.682 174.424ZM124.935 173.971L124.79 172.611L126.15 172.466L126.295 173.826L124.935 173.971ZM133.795 173.027L133.559 170.807L128.197 171.379L128.078 170.265L131.047 161.735L132.36 161.595L129.391 170.125L133.44 169.694L133.084 166.353L134.261 166.227L134.617 169.568L135.866 169.435L135.985 170.549L134.736 170.682L134.973 172.901L133.795 173.027ZM141.542 172.443C140.948 172.506 140.387 172.443 139.857 172.252C139.327 172.062 138.861 171.771 138.46 171.379C138.059 170.988 137.752 170.522 137.539 169.981L138.628 169.559C138.773 169.962 138.994 170.301 139.292 170.575C139.589 170.843 139.923 171.041 140.296 171.168C140.674 171.294 141.06 171.336 141.452 171.294C141.961 171.24 142.404 171.069 142.781 170.782C143.163 170.489 143.452 170.126 143.647 169.692C143.842 169.259 143.914 168.798 143.862 168.31C143.808 167.806 143.635 167.366 143.343 166.989C143.05 166.608 142.687 166.319 142.253 166.124C141.819 165.929 141.361 165.857 140.878 165.908C140.337 165.966 139.883 166.135 139.516 166.415C139.149 166.691 138.867 167.018 138.672 167.399L137.558 167.067L137.273 161.071L143.391 160.419L143.51 161.541L137.91 162.138L138.432 161.527L138.664 166.643L138.328 166.285C138.617 165.873 138.983 165.536 139.427 165.275C139.871 165.013 140.35 164.854 140.865 164.8C141.57 164.724 142.225 164.826 142.828 165.105C143.431 165.379 143.93 165.784 144.325 166.321C144.721 166.859 144.956 167.48 145.031 168.185C145.106 168.885 144.996 169.546 144.703 170.167C144.409 170.783 143.987 171.297 143.435 171.71C142.884 172.123 142.253 172.367 141.542 172.443ZM148.432 171.467L147.552 170.757L157.1 158.958L157.979 159.661L148.432 171.467ZM156.755 170.822C156.23 170.878 155.736 170.802 155.274 170.593C154.817 170.379 154.435 170.071 154.13 169.669C153.824 169.262 153.642 168.793 153.586 168.263C153.53 167.743 153.612 167.252 153.831 166.789C154.05 166.326 154.363 165.941 154.77 165.635C155.177 165.329 155.635 165.148 156.144 165.094C156.669 165.038 157.163 165.117 157.626 165.331C158.088 165.539 158.469 165.847 158.77 166.255C159.076 166.656 159.257 167.123 159.313 167.653C159.37 168.183 159.291 168.68 159.078 169.142C158.869 169.599 158.561 169.98 158.154 170.287C157.746 170.587 157.28 170.766 156.755 170.822ZM156.642 169.764C156.965 169.729 157.256 169.615 157.515 169.421C157.773 169.228 157.97 168.987 158.105 168.699C158.24 168.405 158.29 168.094 158.255 167.766C158.22 167.437 158.106 167.146 157.913 166.893C157.719 166.635 157.476 166.438 157.182 166.303C156.889 166.168 156.581 166.118 156.257 166.152C155.928 166.187 155.635 166.302 155.377 166.495C155.124 166.689 154.927 166.932 154.787 167.226C154.651 167.514 154.601 167.822 154.636 168.151C154.671 168.48 154.785 168.774 154.979 169.032C155.178 169.284 155.421 169.478 155.709 169.614C156.002 169.749 156.313 169.799 156.642 169.764ZM149.387 165.331C148.862 165.387 148.369 165.311 147.907 165.103C147.444 164.89 147.06 164.582 146.755 164.18C146.454 163.772 146.275 163.303 146.219 162.773C146.163 162.253 146.245 161.762 146.464 161.299C146.683 160.835 146.996 160.451 147.403 160.145C147.81 159.838 148.268 159.658 148.777 159.604C149.302 159.548 149.793 159.627 150.251 159.841C150.713 160.049 151.097 160.357 151.403 160.764C151.709 161.166 151.89 161.632 151.946 162.163C152.003 162.693 151.924 163.189 151.711 163.652C151.496 164.109 151.186 164.491 150.779 164.797C150.376 165.097 149.912 165.276 149.387 165.331ZM149.275 164.273C149.604 164.238 149.894 164.124 150.147 163.931C150.406 163.737 150.603 163.496 150.738 163.208C150.873 162.915 150.923 162.604 150.888 162.275C150.853 161.946 150.739 161.656 150.546 161.403C150.352 161.144 150.108 160.948 149.815 160.813C149.527 160.677 149.219 160.627 148.89 160.662C148.561 160.697 148.268 160.811 148.009 161.005C147.756 161.198 147.562 161.442 147.427 161.735C147.292 162.023 147.241 162.331 147.277 162.66C147.312 162.989 147.426 163.282 147.62 163.541C147.813 163.794 148.054 163.988 148.342 164.124C148.635 164.259 148.946 164.309 149.275 164.273Z" fill="#171717"/>
</g>
<defs>
<filter id="filter0_d_279_202" x="-0.0999985" y="-0.0999374" width="328.717" height="275.412" filterUnits="userSpaceOnUse" color-interpolation-filters="sRGB">
<feFlood flood-opacity="0" result="BackgroundImageFix"/>
<feColorMatrix in="SourceAlpha" type="matrix" values="0 0 0 0 0 0 0 0 0 0 0 0 0 0 0 0 0 0 127 0" result="hardAlpha"/>
<feOffset dx="20" dy="20"/>
<feGaussianBlur stdDeviation="21.05"/>
<feComposite in2="hardAlpha" operator="out"/>
<feColorMatrix type="matrix" values="0 0 0 0 0 0 0 0 0 0 0 0 0 0 0 0 0 0 0.15 0"/>
<feBlend mode="normal" in2="BackgroundImageFix" result="effect1_dropShadow_279_202"/>
<feBlend mode="normal" in="SourceGraphic" in2="effect1_dropShadow_279_202" result="shape"/>
</filter>
<clipPath id="clip0_279_202">
<rect width="18" height="18" fill="white" transform="translate(168.833 55.6537) rotate(-6.0823)"/>
</clipPath>
</defs>
</svg>
