<svg width="190" height="104" viewBox="0 0 190 104" fill="none" xmlns="http://www.w3.org/2000/svg">
<g filter="url(#filter0_d_279_195)">
<rect x="37" y="19" width="130" height="44" rx="22" fill="white" shape-rendering="crispEdges"/>
<rect x="36.25" y="18.25" width="131.5" height="45.5" rx="22.75" stroke="#E9E9EB" stroke-width="1.5" shape-rendering="crispEdges"/>
<rect x="53" y="29" width="24" height="24" rx="12" fill="#9E77ED"/>
<path d="M65.593 35.4357C65.3384 35.1697 64.9163 35.1605 64.6504 35.4151L60.7978 39.1032C60.5318 39.3578 60.5226 39.7798 60.7772 40.0458C61.0318 40.3117 61.4538 40.3209 61.7198 40.0663L64.4098 37.4912L64.2172 46.3175C64.2092 46.6856 64.5011 46.9906 64.8692 46.9986C65.2373 47.0066 65.5422 46.7147 65.5502 46.3466L65.7428 37.5203L68.3179 40.2103C68.5725 40.4762 68.9945 40.4855 69.2605 40.2308C69.5264 39.9762 69.5357 39.5542 69.281 39.2883L65.593 35.4357Z" fill="#171717"/>
<path d="M93.3644 47.232C92.7938 47.232 92.2684 47.1307 91.7884 46.928C91.3084 46.7253 90.8951 46.4373 90.5484 46.064C90.2018 45.6853 89.9484 45.2347 89.7884 44.712L90.9084 44.376C91.1004 44.9467 91.4151 45.3787 91.8524 45.672C92.2951 45.9653 92.7938 46.1067 93.3484 46.096C93.8604 46.0853 94.3004 45.9707 94.6684 45.752C95.0418 45.5333 95.3271 45.2293 95.5244 44.84C95.7218 44.4507 95.8204 44 95.8204 43.488C95.8204 42.704 95.5911 42.0747 95.1324 41.6C94.6791 41.12 94.0791 40.88 93.3324 40.88C93.1244 40.88 92.9058 40.9093 92.6764 40.968C92.4471 41.0213 92.2338 41.0987 92.0364 41.2L91.4444 40.264L95.9244 36.128L96.1164 36.608H90.2444V35.48H96.9004V36.624L92.9964 40.352L92.9804 39.888C93.7804 39.7867 94.4844 39.8773 95.0924 40.16C95.7004 40.4427 96.1751 40.8747 96.5164 41.456C96.8631 42.032 97.0364 42.7093 97.0364 43.488C97.0364 44.224 96.8764 44.8747 96.5564 45.44C96.2418 46 95.8071 46.44 95.2524 46.76C94.6978 47.0747 94.0684 47.232 93.3644 47.232ZM104.184 47V44.768H98.7922V43.648L102.648 35.48H103.968L100.112 43.648H104.184V40.288H105.368V43.648H106.624V44.768H105.368V47H104.184ZM109.166 47L113.406 36.624H108.07V35.48H114.662V36.624L110.43 47H109.166ZM115.742 47V45.632H117.11V47H115.742ZM119.261 46.992L119.269 45.92L124.477 41.216C124.925 40.8107 125.221 40.4267 125.365 40.064C125.514 39.696 125.589 39.312 125.589 38.912C125.589 38.4373 125.477 38.008 125.253 37.624C125.029 37.24 124.728 36.936 124.349 36.712C123.97 36.4827 123.546 36.368 123.077 36.368C122.586 36.368 122.149 36.4853 121.765 36.72C121.381 36.9547 121.077 37.264 120.853 37.648C120.634 38.032 120.528 38.4507 120.533 38.904H119.333C119.333 38.2053 119.498 37.5787 119.829 37.024C120.16 36.4693 120.608 36.0347 121.173 35.72C121.738 35.4 122.378 35.24 123.093 35.24C123.792 35.24 124.418 35.4053 124.973 35.736C125.533 36.0613 125.973 36.504 126.293 37.064C126.618 37.6187 126.781 38.2373 126.781 38.92C126.781 39.4 126.722 39.824 126.605 40.192C126.493 40.5547 126.314 40.8933 126.069 41.208C125.829 41.5173 125.522 41.8373 125.149 42.168L120.525 46.344L120.341 45.864H126.781V46.992H119.261ZM131.802 47.232C131.231 47.232 130.706 47.1307 130.226 46.928C129.746 46.7253 129.333 46.4373 128.986 46.064C128.639 45.6853 128.386 45.2347 128.226 44.712L129.346 44.376C129.538 44.9467 129.853 45.3787 130.29 45.672C130.733 45.9653 131.231 46.1067 131.786 46.096C132.298 46.0853 132.738 45.9707 133.106 45.752C133.479 45.5333 133.765 45.2293 133.962 44.84C134.159 44.4507 134.258 44 134.258 43.488C134.258 42.704 134.029 42.0747 133.57 41.6C133.117 41.12 132.517 40.88 131.77 40.88C131.562 40.88 131.343 40.9093 131.114 40.968C130.885 41.0213 130.671 41.0987 130.474 41.2L129.882 40.264L134.362 36.128L134.554 36.608H128.682V35.48H135.338V36.624L131.434 40.352L131.418 39.888C132.218 39.7867 132.922 39.8773 133.53 40.16C134.138 40.4427 134.613 40.8747 134.954 41.456C135.301 42.032 135.474 42.7093 135.474 43.488C135.474 44.224 135.314 44.8747 134.994 45.44C134.679 46 134.245 46.44 133.69 46.76C133.135 47.0747 132.506 47.232 131.802 47.232ZM138.67 47L137.87 46.2L148.614 35.48L149.414 36.272L138.67 47ZM147.014 47.24C146.486 47.24 146.003 47.112 145.566 46.856C145.134 46.5947 144.787 46.248 144.526 45.816C144.264 45.3787 144.134 44.8933 144.134 44.36C144.134 43.8373 144.267 43.3573 144.534 42.92C144.8 42.4827 145.152 42.1333 145.59 41.872C146.027 41.6107 146.502 41.48 147.014 41.48C147.542 41.48 148.024 41.6107 148.462 41.872C148.899 42.128 149.246 42.4747 149.502 42.912C149.763 43.344 149.894 43.8267 149.894 44.36C149.894 44.8933 149.763 45.3787 149.502 45.816C149.246 46.248 148.899 46.5947 148.462 46.856C148.024 47.112 147.542 47.24 147.014 47.24ZM147.014 46.176C147.339 46.176 147.64 46.0933 147.918 45.928C148.195 45.7627 148.416 45.544 148.582 45.272C148.747 44.9947 148.83 44.6907 148.83 44.36C148.83 44.0293 148.747 43.728 148.582 43.456C148.416 43.1787 148.195 42.9573 147.918 42.792C147.64 42.6267 147.339 42.544 147.014 42.544C146.683 42.544 146.379 42.6267 146.102 42.792C145.83 42.9573 145.608 43.1787 145.438 43.456C145.272 43.728 145.19 44.0293 145.19 44.36C145.19 44.6907 145.272 44.9947 145.438 45.272C145.608 45.544 145.83 45.7627 146.102 45.928C146.379 46.0933 146.683 46.176 147.014 46.176ZM140.27 41C139.742 41 139.259 40.872 138.822 40.616C138.384 40.3547 138.035 40.008 137.774 39.576C137.518 39.1387 137.39 38.6533 137.39 38.12C137.39 37.5973 137.523 37.1173 137.79 36.68C138.056 36.2427 138.408 35.8933 138.846 35.632C139.283 35.3707 139.758 35.24 140.27 35.24C140.798 35.24 141.278 35.3707 141.71 35.632C142.147 35.888 142.496 36.2347 142.758 36.672C143.019 37.104 143.15 37.5867 143.15 38.12C143.15 38.6533 143.019 39.1387 142.758 39.576C142.496 40.008 142.147 40.3547 141.71 40.616C141.278 40.872 140.798 41 140.27 41ZM140.27 39.936C140.6 39.936 140.902 39.8533 141.174 39.688C141.451 39.5227 141.672 39.304 141.838 39.032C142.003 38.7547 142.086 38.4507 142.086 38.12C142.086 37.7893 142.003 37.488 141.838 37.216C141.672 36.9387 141.451 36.7173 141.174 36.552C140.902 36.3867 140.6 36.304 140.27 36.304C139.939 36.304 139.635 36.3867 139.358 36.552C139.086 36.7173 138.867 36.9387 138.702 37.216C138.536 37.488 138.454 37.7893 138.454 38.12C138.454 38.4507 138.536 38.7547 138.702 39.032C138.867 39.304 139.086 39.5227 139.358 39.688C139.635 39.8533 139.939 39.936 140.27 39.936Z" fill="#171717"/>
</g>
<defs>
<filter id="filter0_d_279_195" x="0" y="0" width="190" height="104" filterUnits="userSpaceOnUse" color-interpolation-filters="sRGB">
<feFlood flood-opacity="0" result="BackgroundImageFix"/>
<feColorMatrix in="SourceAlpha" type="matrix" values="0 0 0 0 0 0 0 0 0 0 0 0 0 0 0 0 0 0 127 0" result="hardAlpha"/>
<feOffset dx="-7" dy="11"/>
<feGaussianBlur stdDeviation="14.25"/>
<feComposite in2="hardAlpha" operator="out"/>
<feColorMatrix type="matrix" values="0 0 0 0 0 0 0 0 0 0 0 0 0 0 0 0 0 0 0.05 0"/>
<feBlend mode="normal" in2="BackgroundImageFix" result="effect1_dropShadow_279_195"/>
<feBlend mode="normal" in="SourceGraphic" in2="effect1_dropShadow_279_195" result="shape"/>
</filter>
</defs>
</svg>
