<svg width="140" height="140" viewBox="0 0 140 140" fill="none" xmlns="http://www.w3.org/2000/svg">
<path d="M17.2423 47.156H18.4873C22.8094 47.25 27.0611 48.9882 30.1148 52.0654C28.9873 53.2164 27.8363 54.3204 26.7322 55.4714C25.0175 53.9211 22.9503 52.7231 20.6953 52.3003C17.3597 51.5956 13.7658 52.2298 10.9705 54.1325C7.91679 56.1292 5.84968 59.5117 5.40337 63.1292C4.91008 66.6996 5.92015 70.458 8.24565 73.2298C10.4772 75.9312 13.8832 77.6224 17.4067 77.7399C20.6953 77.9278 24.1248 76.9178 26.5208 74.6157C28.4 72.9949 29.2691 70.5285 29.551 68.1325C25.6517 68.1325 21.7524 68.156 17.853 68.1325V63.2936H34.2725C35.1181 68.4849 33.8967 74.3339 29.9504 78.0453C27.3195 80.6761 23.6785 82.2265 19.9671 82.5318C16.3732 82.8842 12.6618 82.203 9.46713 80.4647C5.63827 78.4211 2.58458 74.9681 1.08122 70.9043C-0.328176 67.1694 -0.351665 62.9412 0.963771 59.1829C2.16176 55.7533 4.46377 52.7231 7.4235 50.609C10.2658 48.5184 13.7188 47.3674 17.2423 47.156Z" fill="#ADB1C7"/>
<path d="M111.436 48.3774H116.462V81.9211C114.795 81.9211 113.103 81.9446 111.436 81.8976C111.459 70.7399 111.436 59.5586 111.436 48.3774Z" fill="#ADB1C7"/>
<path d="M45.4522 60.005C48.5529 59.4178 51.9119 60.0755 54.4723 61.9312C56.7978 63.5755 58.4186 66.1594 58.9119 68.9782C59.5462 72.2433 58.7475 75.8137 56.6334 78.3976C54.3549 81.2869 50.62 82.8372 46.979 82.6023C43.6435 82.4144 40.4019 80.7466 38.4287 78.0218C36.1972 75.0151 35.6569 70.8808 36.8784 67.3574C38.0998 63.5755 41.5529 60.6862 45.4522 60.005ZM46.1569 64.4681C44.8884 64.7969 43.7139 65.5251 42.8683 66.5587C40.5898 69.2835 40.7307 73.7231 43.2441 76.26C44.677 77.7164 46.8381 78.3976 48.8347 77.9983C50.6904 77.6694 52.3113 76.4245 53.2039 74.7802C54.7542 71.9849 54.3079 68.1325 51.9354 65.948C50.4086 64.5386 48.177 63.9513 46.1569 64.4681Z" fill="#ADB1C7"/>
<path d="M70.353 60.005C73.9 59.3238 77.7758 60.3104 80.4302 62.8003C84.7523 66.6762 85.2221 73.9346 81.5342 78.3976C79.3027 81.2164 75.6852 82.7668 72.1148 82.6023C68.7087 82.5084 65.3497 80.8171 63.3295 78.0218C61.051 74.9446 60.5577 70.7164 61.8497 67.1225C63.1416 63.458 66.5242 60.6627 70.353 60.005ZM71.0577 64.4681C69.7893 64.797 68.6148 65.5252 67.7691 66.5352C65.5141 69.2131 65.608 73.5822 68.0275 76.1426C69.4604 77.6695 71.6919 78.4211 73.7591 77.9983C75.5913 77.646 77.2356 76.4245 78.1282 74.7802C79.655 71.9614 79.2087 68.1091 76.8127 65.9245C75.2859 64.5151 73.0544 63.9513 71.0577 64.4681Z" fill="#ADB1C7"/>
<path d="M91.4706 61.3674C94.1719 59.6762 97.7659 59.2064 100.679 60.6627C101.595 61.0621 102.346 61.7433 103.075 62.4245C103.098 61.7903 103.075 61.1325 103.098 60.4748C104.672 60.4983 106.246 60.4748 107.843 60.4983V81.2164C107.82 84.3406 107.021 87.6527 104.766 89.9312C102.299 92.4446 98.5176 93.2198 95.1115 92.703C91.4706 92.1627 88.2995 89.5084 86.8901 86.1493C88.2995 85.4681 89.7793 84.9278 91.2357 84.2936C92.0578 86.2198 93.7256 87.8641 95.8162 88.2399C97.9068 88.6158 100.326 88.099 101.689 86.3607C103.145 84.5755 103.145 82.1325 103.075 79.948C101.994 81.005 100.749 81.9446 99.2458 82.297C95.9807 83.2131 92.3867 82.0856 89.8733 79.8775C87.3364 77.6695 85.833 74.2634 85.974 70.8809C86.0444 67.052 88.2055 63.3641 91.4706 61.3674ZM96.333 64.3742C94.9001 64.609 93.5612 65.4077 92.6451 66.5117C90.437 69.1426 90.437 73.3473 92.6686 75.9312C93.937 77.458 95.9807 78.3037 97.9538 78.0923C99.8095 77.9044 101.524 76.7299 102.44 75.1091C103.991 72.3607 103.732 68.6258 101.642 66.2299C100.35 64.75 98.2827 64.0218 96.333 64.3742Z" fill="#ADB1C7"/>
<path d="M122.499 62.5654C125.318 59.9346 129.663 59.0419 133.281 60.4279C136.71 61.7198 138.895 64.9849 139.999 68.344C134.902 70.4581 129.828 72.5487 124.731 74.6628C125.435 76.0017 126.516 77.2232 127.972 77.7164C130.016 78.4446 132.459 78.1862 134.174 76.8238C134.855 76.3071 135.395 75.6258 135.912 74.9681C137.204 75.8373 138.496 76.6829 139.788 77.552C137.955 80.3003 134.878 82.2265 131.566 82.5319C127.902 82.9782 124.002 81.5688 121.63 78.703C117.731 74.193 118.106 66.6292 122.499 62.5654ZM125.012 66.9111C124.214 68.0621 123.885 69.4715 123.908 70.8574C127.314 69.448 130.721 68.0386 134.127 66.6057C133.563 65.2903 132.2 64.4916 130.814 64.2802C128.583 63.8809 126.257 65.0789 125.012 66.9111Z" fill="#ADB1C7"/>
</svg>
