<svg width="50" height="50" viewBox="0 0 50 50" fill="none" xmlns="http://www.w3.org/2000/svg">
<rect width="50" height="50" rx="25" fill="#DCFAE6"/>
<path d="M25 36.25C26.4774 36.25 27.9403 35.959 29.3052 35.3936C30.6701 34.8283 31.9103 33.9996 32.955 32.955C33.9996 31.9103 34.8283 30.6701 35.3936 29.3052C35.959 27.9403 36.25 26.4774 36.25 25C36.25 23.5226 35.959 22.0597 35.3936 20.6948C34.8283 19.3299 33.9996 18.0897 32.955 17.045C31.9103 16.0004 30.6701 15.1717 29.3052 14.6064C27.9403 14.041 26.4774 13.75 25 13.75C22.0163 13.75 19.1548 14.9353 17.045 17.045C14.9353 19.1548 13.75 22.0163 13.75 25C13.75 27.9837 14.9353 30.8452 17.045 32.955C19.1548 35.0647 22.0163 36.25 25 36.25Z" stroke="#0B9055" stroke-width="2.5" stroke-linecap="round" stroke-linejoin="round"/>
<path d="M21.25 25H28.75" stroke="#0B9055" stroke-width="2.5" stroke-linecap="round" stroke-linejoin="round"/>
<path d="M25 21.25V28.75" stroke="#0B9055" stroke-width="2.5" stroke-linecap="round" stroke-linejoin="round"/>
</svg>
