<svg width="44" height="44" viewBox="0 0 44 44" fill="none" xmlns="http://www.w3.org/2000/svg">
<rect width="44" height="44" rx="22" fill="#F6F7F9"/>
<path fill-rule="evenodd" clip-rule="evenodd" d="M13.8853 15.2371C13.2054 15.8685 12.75 16.8929 12.75 18.5V25.5C12.75 27.107 13.2054 28.1315 13.8853 28.7629C14.5753 29.4036 15.615 29.75 17 29.75H27C28.385 29.75 29.4246 29.4036 30.1147 28.7629C30.7946 28.1315 31.25 27.107 31.25 25.5V18.5C31.25 16.8929 30.7946 15.8685 30.1147 15.2371C29.4246 14.5964 28.385 14.25 27 14.25H17C15.615 14.25 14.5753 14.5964 13.8853 15.2371ZM12.8647 14.1379C13.9246 13.1536 15.385 12.75 17 12.75H27C28.615 12.75 30.0754 13.1536 31.1353 14.1379C32.2054 15.1315 32.75 16.607 32.75 18.5V25.5C32.75 27.393 32.2054 28.8685 31.1353 29.8621C30.0754 30.8464 28.615 31.25 27 31.25H17C15.385 31.25 13.9246 30.8464 12.8647 29.8621C11.7946 28.8685 11.25 27.393 11.25 25.5V18.5C11.25 16.607 11.7946 15.1315 12.8647 14.1379Z" fill="#595959"/>
<path fill-rule="evenodd" clip-rule="evenodd" d="M29.3633 17.31C29.6166 17.6378 29.5562 18.1088 29.2285 18.3621L23.6814 22.6484C22.691 23.4136 21.3089 23.4136 20.3185 22.6484L14.7714 18.3621C14.4437 18.1088 14.3833 17.6378 14.6366 17.31C14.8898 16.9822 15.3608 16.9219 15.6886 17.1751L21.2356 21.4614C21.6858 21.8093 22.3141 21.8093 22.7642 21.4614L28.3113 17.1751C28.6391 16.9219 29.1101 16.9822 29.3633 17.31Z" fill="#595959"/>
</svg>
