<svg width="140" height="140" viewBox="0 0 140 140" fill="none" xmlns="http://www.w3.org/2000/svg">
<path d="M139.999 68.5772V66.1151H136.942V62.2874L136.839 62.3191L133.967 63.1978L133.91 63.215V66.1152H129.378V64.4995C129.378 63.7472 129.546 63.1715 129.877 62.7876C130.207 62.4082 130.678 62.2154 131.278 62.2154C131.71 62.2154 132.157 62.3171 132.607 62.5177L132.72 62.568V59.9751L132.667 59.9556C132.247 59.8047 131.676 59.7288 130.968 59.7288C130.077 59.7288 129.266 59.9228 128.56 60.3075C127.853 60.6926 127.296 61.2425 126.907 61.9415C126.519 62.6398 126.321 63.4463 126.321 64.3388V66.1151H124.193V68.5772H126.321V78.9496H129.378V68.5772H133.91V75.1687C133.91 77.8834 135.191 79.2591 137.716 79.2591C138.131 79.2591 138.568 79.2105 139.014 79.1153C139.468 79.0175 139.777 78.9198 139.959 78.8156L139.999 78.7917V76.3069L139.875 76.3891C139.709 76.4996 139.503 76.5899 139.26 76.6571C139.017 76.7255 138.814 76.7597 138.657 76.7597C138.065 76.7597 137.627 76.6003 137.356 76.2857C137.081 75.9683 136.942 75.4132 136.942 74.6366V68.5772H139.999ZM117.367 76.7601C116.258 76.7601 115.383 76.3923 114.767 75.6678C114.147 74.9396 113.833 73.9013 113.833 72.5823C113.833 71.2213 114.147 70.1562 114.767 69.4151C115.384 68.6789 116.25 68.3053 117.342 68.3053C118.402 68.3053 119.246 68.6621 119.85 69.3665C120.457 70.0745 120.766 71.1311 120.766 72.5079C120.766 73.9016 120.476 74.9722 119.904 75.6883C119.337 76.3991 118.483 76.7601 117.367 76.7601ZM117.503 65.8059C115.387 65.8059 113.706 66.426 112.507 67.6491C111.31 68.8723 110.702 70.565 110.702 72.6807C110.702 74.6902 111.295 76.3066 112.464 77.4841C113.634 78.6621 115.225 79.2588 117.194 79.2588C119.245 79.2588 120.893 78.63 122.091 77.39C123.289 76.1514 123.896 74.4746 123.896 72.4084C123.896 70.3674 123.326 68.739 122.202 67.5693C121.078 66.3991 119.497 65.8059 117.503 65.8059ZM105.775 65.8059C104.335 65.8059 103.144 66.1741 102.235 66.9002C101.319 67.6305 100.855 68.5884 100.855 69.7476C100.855 70.3501 100.955 70.8853 101.153 71.3393C101.351 71.7947 101.658 72.1957 102.066 72.5323C102.471 72.8661 103.096 73.2158 103.924 73.5716C104.62 73.858 105.139 74.1003 105.469 74.2913C105.791 74.4784 106.02 74.6665 106.149 74.8498C106.274 75.0291 106.338 75.2745 106.338 75.5773C106.338 76.4396 105.692 76.8591 104.364 76.8591C103.871 76.8591 103.309 76.7562 102.693 76.5533C102.081 76.3535 101.504 76.0609 100.982 75.6858L100.855 75.5948V78.5372L100.901 78.5589C101.334 78.7585 101.879 78.9269 102.522 79.0593C103.163 79.1919 103.746 79.2594 104.252 79.2594C105.814 79.2594 107.072 78.8894 107.99 78.159C108.914 77.4236 109.382 76.4431 109.382 75.2439C109.382 74.3787 109.13 73.6369 108.633 73.0385C108.14 72.4451 107.284 71.9002 106.089 71.4187C105.138 71.0367 104.528 70.7197 104.277 70.4763C104.034 70.2412 103.911 69.9087 103.911 69.4877C103.911 69.1144 104.063 68.8154 104.375 68.5733C104.689 68.3299 105.127 68.2061 105.676 68.2061C106.185 68.2061 106.706 68.2866 107.224 68.4442C107.742 68.6018 108.197 68.813 108.576 69.0712L108.701 69.1566V66.3654L108.653 66.3448C108.303 66.1946 107.841 66.0661 107.28 65.9618C106.722 65.8582 106.215 65.8059 105.775 65.8059ZM92.8876 76.7601C91.7786 76.7601 90.9037 76.3923 90.2875 75.6678C89.6672 74.9396 89.3536 73.9016 89.3536 72.5823C89.3536 71.2213 89.6677 70.1562 90.2882 69.4151C90.9044 68.6789 91.7705 68.3053 92.8631 68.3053C93.9225 68.3053 94.766 68.6621 95.3705 69.3665C95.9779 70.0745 96.286 71.1311 96.286 72.5079C96.286 73.9016 95.996 74.9722 95.4245 75.6883C94.8569 76.3991 94.0038 76.7601 92.8876 76.7601ZM93.0239 65.8059C90.907 65.8059 89.2259 66.426 88.028 67.6491C86.8303 68.8723 86.2226 70.565 86.2226 72.6807C86.2226 74.691 86.8158 76.3066 87.9851 77.4841C89.1544 78.6621 90.7455 79.2588 92.7143 79.2588C94.7655 79.2588 96.4134 78.63 97.6114 77.39C98.809 76.1514 99.4162 74.4746 99.4162 72.4084C99.4162 70.3674 98.8465 68.739 97.7226 67.5693C96.5981 66.3991 95.0171 65.8059 93.0239 65.8059ZM81.5833 68.3378V66.1151H78.5643V78.9494H81.5833V72.3841C81.5833 71.2678 81.8364 70.3507 82.3359 69.6579C82.829 68.9735 83.4861 68.6266 84.2884 68.6266C84.5603 68.6266 84.8656 68.6715 85.1962 68.7602C85.5234 68.8483 85.7604 68.9441 85.9001 69.0448L86.027 69.1368V66.0931L85.9781 66.0722C85.697 65.9527 85.2992 65.8924 84.796 65.8924C84.0373 65.8924 83.3584 66.1362 82.7768 66.6162C82.2664 67.038 81.8975 67.6165 81.6154 68.3378H81.5833ZM73.1578 65.8059C71.7728 65.8059 70.5374 66.1029 69.4866 66.6884C68.4336 67.2752 67.6193 68.1129 67.0652 69.1782C66.5136 70.241 66.2336 71.4823 66.2336 72.8667C66.2336 74.0793 66.5051 75.1921 67.0418 76.1729C67.5788 77.1553 68.3388 77.9239 69.3009 78.4569C70.2616 78.9893 71.372 79.2592 72.6015 79.2592C74.0362 79.2592 75.2612 78.9724 76.2433 78.4067L76.283 78.3839V75.6181L76.1561 75.7107C75.7112 76.0348 75.214 76.2934 74.6791 76.4798C74.1455 76.666 73.659 76.7601 73.2324 76.7601C72.0478 76.7601 71.0968 76.3895 70.4066 75.6587C69.7148 74.927 69.364 73.8995 69.364 72.6065C69.364 71.3054 69.7298 70.2515 70.4507 69.4739C71.1694 68.6985 72.1222 68.3053 73.2823 68.3053C74.2746 68.3053 75.2415 68.6413 76.1564 69.3049L76.283 69.3968V66.4825L76.2421 66.4595C75.8978 66.2668 75.4283 66.1076 74.8454 65.987C74.2649 65.8666 73.6972 65.8059 73.1578 65.8059ZM64.1543 66.1152H61.1353V78.9494H64.1543V66.1152ZM62.6757 60.6478C62.1788 60.6478 61.7454 60.8169 61.3894 61.1521C61.0318 61.4883 60.8505 61.9115 60.8505 62.4109C60.8505 62.9026 61.0297 63.3181 61.3838 63.6453C61.7357 63.9715 62.1704 64.1369 62.6758 64.1369C63.1811 64.1369 63.6175 63.9715 63.9735 63.6458C64.3319 63.3181 64.5136 62.9027 64.5136 62.4109C64.5136 61.929 64.3367 61.5101 63.9883 61.1657C63.6401 60.8219 63.1983 60.6478 62.6757 60.6478ZM55.1431 65.1683V78.9494H58.2241V61.0407H53.9598L48.5397 74.3427L43.2797 61.0407H38.8418V78.9492H41.7372V65.1669H41.8366L47.3909 78.9494H49.576L55.0437 65.1683H55.1431Z" fill="#ADB1C7"/>
<path d="M14.2022 69.2585H0V55.0563H14.2022V69.2585Z" fill="#ADB1C7"/>
<path d="M29.8836 69.2586H15.6816V55.0564H29.8836V69.2586Z" fill="#ADB1C7"/>
<path d="M14.2018 84.9449H0V70.7428H14.2018V84.9449Z" fill="#ADB1C7"/>
<path d="M29.8836 84.945H15.6816V70.7429H29.8836V84.945Z" fill="#ADB1C7"/>
</svg>
