<svg width="189" height="50" viewBox="0 0 189 50" fill="none" xmlns="http://www.w3.org/2000/svg">
<rect x="0.25" width="188.118" height="50" rx="25" fill="white"/>
<path d="M24.7359 10.4111C24.3715 10.7608 24.25 11.3435 24.25 12.0427V37.799C24.25 38.4982 24.493 39.0809 24.8574 39.4306L24.9789 39.5471L40.0418 25.0957V24.8626L24.7359 10.4111Z" fill="url(#paint0_linear_279_899)"/>
<path d="M44.9008 29.9907L39.9203 25.2124V24.8628L44.9008 20.0845L45.0223 20.201L50.9746 23.4642C52.6752 24.3966 52.6752 25.9117 50.9746 26.844L44.9008 29.9907Z" fill="url(#paint1_linear_279_899)"/>
<path d="M45.0218 29.8743L39.9198 24.9795L24.7354 39.5475C25.3427 40.1302 26.1931 40.1302 27.2863 39.664L45.0218 29.8743Z" fill="url(#paint2_linear_279_899)"/>
<path d="M45.0218 20.0846L27.2863 10.4114C26.1931 9.82871 25.3427 9.94525 24.7354 10.528L39.9198 24.9794L45.0218 20.0846Z" fill="url(#paint3_linear_279_899)"/>
<path opacity="0.2" d="M44.9003 29.7573L27.2863 39.3139C26.3145 39.8966 25.4642 39.7801 24.8568 39.3139L24.7354 39.4305L24.8568 39.547C25.4642 40.0132 26.3145 40.1297 27.2863 39.547L44.9003 29.7573Z" fill="black"/>
<path opacity="0.12" d="M24.7359 39.3139C24.3715 38.9643 24.25 38.3816 24.25 37.6823V37.7988C24.25 38.4981 24.493 39.0808 24.8574 39.4305V39.3139H24.7359ZM50.9746 26.4941L44.9008 29.7573L45.0223 29.8739L50.9746 26.6106C51.8249 26.1444 52.1894 25.5617 52.1894 24.979C52.1894 25.5617 51.7035 26.0279 50.9746 26.4941Z" fill="black"/>
<path opacity="0.25" d="M27.2869 10.5277L50.9746 23.4641C51.7035 23.9303 52.1894 24.3964 52.1894 24.9792C52.1894 24.3964 51.8249 23.8137 50.9746 23.3476L27.2869 10.4112C25.5862 9.47883 24.25 10.1781 24.25 12.0428V12.1593C24.25 10.4112 25.5862 9.59537 27.2869 10.5277Z" fill="#171717"/>
<path d="M71.9919 12.7581C71.9919 13.7903 71.7339 14.6935 71.0887 15.3387C70.3145 16.1129 69.4113 16.5 68.25 16.5C67.0887 16.5 66.1855 16.1129 65.4113 15.3387C64.6371 14.5645 64.25 13.6613 64.25 12.5C64.25 11.3387 64.6371 10.4355 65.4113 9.66129C66.1855 8.8871 67.0887 8.5 68.25 8.5C68.7661 8.5 69.2823 8.62903 69.7984 8.8871C70.3145 9.14516 70.7016 9.40323 70.9597 9.79032L70.3145 10.4355C69.7984 9.79032 69.1532 9.53226 68.25 9.53226C67.4758 9.53226 66.7016 9.79032 66.1855 10.4355C65.5403 10.9516 65.2823 11.7258 65.2823 12.629C65.2823 13.5323 65.5403 14.3065 66.1855 14.8226C66.8306 15.3387 67.4758 15.7258 68.25 15.7258C69.1532 15.7258 69.7984 15.4677 70.4435 14.8226C70.8306 14.4355 71.0887 13.9194 71.0887 13.2742H68.25V12.2419H71.9919V12.7581ZM77.9274 9.53226H74.4435V11.9839H77.6693V12.8871H74.4435V15.3387H77.9274V16.371H73.4113V8.62903H77.9274V9.53226ZM82.1855 16.371H81.1532V9.53226H78.9597V8.62903H84.379V9.53226H82.1855V16.371ZM88.121 16.371V8.62903H89.1532V16.371H88.121ZM93.5403 16.371H92.5081V9.53226H90.3145V8.62903H95.6048V9.53226H93.4113V16.371H93.5403ZM105.798 15.3387C105.024 16.1129 104.121 16.5 102.96 16.5C101.798 16.5 100.895 16.1129 100.121 15.3387C99.3468 14.5645 98.9597 13.6613 98.9597 12.5C98.9597 11.3387 99.3468 10.4355 100.121 9.66129C100.895 8.8871 101.798 8.5 102.96 8.5C104.121 8.5 105.024 8.8871 105.798 9.66129C106.573 10.4355 106.96 11.3387 106.96 12.5C106.96 13.6613 106.573 14.5645 105.798 15.3387ZM100.895 14.6935C101.411 15.2097 102.185 15.5968 102.96 15.5968C103.734 15.5968 104.508 15.3387 105.024 14.6935C105.54 14.1774 105.927 13.4032 105.927 12.5C105.927 11.5968 105.669 10.8226 105.024 10.3065C104.508 9.79032 103.734 9.40323 102.96 9.40323C102.185 9.40323 101.411 9.66129 100.895 10.3065C100.379 10.8226 99.9919 11.5968 99.9919 12.5C99.9919 13.4032 100.25 14.1774 100.895 14.6935ZM108.379 16.371V8.62903H109.54L113.282 14.6935V8.62903H114.314V16.371H113.282L109.282 10.0484V16.371H108.379Z" fill="#171717"/>
<path d="M96.2027 27.0621C93.3624 27.0621 91.1139 29.1923 91.1139 32.1509C91.1139 34.9911 93.3624 37.2396 96.2027 37.2396C99.0429 37.2396 101.291 35.1095 101.291 32.1509C101.291 29.074 99.0429 27.0621 96.2027 27.0621ZM96.2027 35.1095C94.6642 35.1095 93.3624 33.8077 93.3624 32.0325C93.3624 30.2574 94.6642 28.9556 96.2027 28.9556C97.7411 28.9556 99.0429 30.1391 99.0429 32.0325C99.0429 33.8077 97.7411 35.1095 96.2027 35.1095ZM85.1967 27.0621C82.3565 27.0621 80.108 29.1923 80.108 32.1509C80.108 34.9911 82.3565 37.2396 85.1967 37.2396C88.037 37.2396 90.2855 35.1095 90.2855 32.1509C90.2855 29.074 88.037 27.0621 85.1967 27.0621ZM85.1967 35.1095C83.6583 35.1095 82.3565 33.8077 82.3565 32.0325C82.3565 30.2574 83.6583 28.9556 85.1967 28.9556C86.7352 28.9556 88.037 30.1391 88.037 32.0325C88.037 33.8077 86.7352 35.1095 85.1967 35.1095ZM72.0607 28.6006V30.7308H77.1494C77.0311 31.9142 76.5577 32.8609 75.966 33.4527C75.2559 34.1627 74.0725 34.9911 72.0607 34.9911C68.8654 34.9911 66.4985 32.5059 66.4985 29.3107C66.4985 26.1154 68.9837 23.6302 72.0607 23.6302C73.7175 23.6302 75.0192 24.3402 75.966 25.1686L77.5044 23.6302C76.2027 22.4467 74.5459 21.5 72.179 21.5C67.9186 21.5 64.25 25.0503 64.25 29.3107C64.25 33.571 67.9186 37.1213 72.179 37.1213C74.5459 37.1213 76.2027 36.4112 77.6228 34.8728C79.0429 33.4527 79.5163 31.4408 79.5163 29.9024C79.5163 29.429 79.5163 28.9556 79.3979 28.6006H72.0607ZM125.788 30.2574C125.315 29.074 124.132 27.0621 121.528 27.0621C118.925 27.0621 116.794 29.074 116.794 32.1509C116.794 34.9911 118.925 37.2396 121.765 37.2396C124.013 37.2396 125.433 35.8195 125.907 34.9911L124.25 33.8077C123.658 34.6361 122.948 35.2278 121.765 35.2278C120.581 35.2278 119.871 34.7544 119.28 33.6893L126.025 30.8491L125.788 30.2574ZM118.925 31.9142C118.925 30.0207 120.463 28.9556 121.528 28.9556C122.357 28.9556 123.185 29.429 123.422 30.0207L118.925 31.9142ZM113.362 36.7663H115.611V21.9734H113.362V36.7663ZM109.812 28.1272C109.22 27.5355 108.274 26.9438 107.09 26.9438C104.605 26.9438 102.238 29.1923 102.238 32.0325C102.238 34.8728 104.487 37.003 107.09 37.003C108.274 37.003 109.22 36.4112 109.694 35.8195H109.812V36.5296C109.812 38.4231 108.747 39.4882 107.09 39.4882C105.788 39.4882 104.842 38.5414 104.605 37.713L102.712 38.5414C103.303 39.8432 104.723 41.5 107.209 41.5C109.812 41.5 111.942 39.9615 111.942 36.2929V27.2988H109.812V28.1272ZM107.209 35.1095C105.67 35.1095 104.368 33.8077 104.368 32.0325C104.368 30.2574 105.67 28.9556 107.209 28.9556C108.747 28.9556 109.93 30.2574 109.93 32.0325C109.93 33.8077 108.747 35.1095 107.209 35.1095ZM136.084 21.9734H130.759V36.7663H133.007V31.2041H136.084C138.57 31.2041 140.936 29.429 140.936 26.5888C140.936 23.7485 138.57 21.9734 136.084 21.9734ZM136.203 29.074H133.007V23.9852H136.203C137.859 23.9852 138.806 25.4053 138.806 26.4704C138.688 27.7722 137.741 29.074 136.203 29.074ZM149.812 26.9438C148.155 26.9438 146.499 27.6538 145.907 29.1923L147.919 30.0207C148.392 29.1923 149.102 28.9556 149.93 28.9556C151.114 28.9556 152.179 29.6657 152.297 30.8491V30.9675C151.942 30.7308 150.996 30.3757 150.049 30.3757C147.919 30.3757 145.788 31.5592 145.788 33.6893C145.788 35.7012 147.564 37.003 149.457 37.003C150.996 37.003 151.706 36.2929 152.297 35.5828H152.416V36.7663H154.546V31.0858C154.309 28.4822 152.297 26.9438 149.812 26.9438ZM149.575 35.1095C148.865 35.1095 147.8 34.7544 147.8 33.8077C147.8 32.6243 149.102 32.2692 150.167 32.2692C151.114 32.2692 151.587 32.5059 152.179 32.7426C151.942 34.1627 150.759 35.1095 149.575 35.1095ZM162.001 27.2988L159.516 33.6893H159.398L156.794 27.2988H154.428L158.333 36.2929L156.084 41.2633H158.333L164.368 27.2988H162.001ZM142.12 36.7663H144.368V21.9734H142.12V36.7663Z" fill="#171717"/>
<defs>
<linearGradient id="paint0_linear_279_899" x1="38.5841" y1="11.8213" x2="19.0413" y2="32.1899" gradientUnits="userSpaceOnUse">
<stop stop-color="#00A0FF"/>
<stop offset="0.007" stop-color="#00A1FF"/>
<stop offset="0.26" stop-color="#00BEFF"/>
<stop offset="0.512" stop-color="#00D2FF"/>
<stop offset="0.76" stop-color="#00DFFF"/>
<stop offset="1" stop-color="#00E3FF"/>
</linearGradient>
<linearGradient id="paint1_linear_279_899" x1="53.2024" y1="24.9805" x2="23.809" y2="24.9805" gradientUnits="userSpaceOnUse">
<stop stop-color="#FFE000"/>
<stop offset="0.409" stop-color="#FFBD00"/>
<stop offset="0.775" stop-color="#FFA500"/>
<stop offset="1" stop-color="#FF9C00"/>
</linearGradient>
<linearGradient id="paint2_linear_279_899" x1="42.2606" y1="27.6553" x2="15.7603" y2="55.277" gradientUnits="userSpaceOnUse">
<stop stop-color="#FF3A44"/>
<stop offset="1" stop-color="#C31162"/>
</linearGradient>
<linearGradient id="paint3_linear_279_899" x1="20.966" y1="1.87575" x2="32.8002" y2="14.2107" gradientUnits="userSpaceOnUse">
<stop stop-color="#32A071"/>
<stop offset="0.069" stop-color="#2DA771"/>
<stop offset="0.476" stop-color="#15CF74"/>
<stop offset="0.801" stop-color="#06E775"/>
<stop offset="1" stop-color="#00F076"/>
</linearGradient>
</defs>
</svg>
