<svg width="40" height="40" viewBox="0 0 40 40" fill="none" xmlns="http://www.w3.org/2000/svg">
<g clip-path="url(#clip0_279_494)">
<path d="M39.2493 14.8356C38.9555 13.9612 38.1987 13.3237 37.2874 13.1844L26.6818 11.5638L21.918 1.41563C21.5118 0.550625 20.6437 0 19.6899 0C18.7355 0 17.868 0.550625 17.4618 1.41563L12.6974 11.5644L2.09178 13.185C1.18053 13.3244 0.423654 13.9613 0.130529 14.8363C-0.162596 15.7113 0.0586535 16.675 0.703029 17.3363L8.44803 25.2781L6.61365 36.5138C6.4624 37.4438 6.85678 38.3787 7.62615 38.9225C8.3949 39.4663 9.4099 39.5213 10.2368 39.065L19.6905 33.8369L29.1443 39.065C29.5174 39.2713 29.928 39.3725 30.3368 39.3725C30.8343 39.3725 31.3318 39.2213 31.7549 38.9225C32.5243 38.3794 32.918 37.4444 32.7668 36.5138L30.9324 25.2781L38.678 17.3363C39.3212 16.675 39.5424 15.7112 39.2493 14.8356Z" fill="#FFA200" fill-opacity="0.8"/>
</g>
<defs>
<clipPath id="clip0_279_494">
<rect width="40" height="40" fill="white"/>
</clipPath>
</defs>
</svg>
