<svg width="140" height="140" viewBox="0 0 140 140" fill="none" xmlns="http://www.w3.org/2000/svg">
<path fill-rule="evenodd" clip-rule="evenodd" d="M19.1671 60.4882V64.265C17.3709 63.6368 15.4041 63.27 13.836 63.27C11.9004 63.27 10.8232 63.8597 10.8232 64.9194C10.8232 65.5956 11.2946 66.0437 12.647 66.6517L16.2843 68.2837C19.1939 69.591 20.6603 71.4983 20.6603 73.9765C20.6603 77.8012 17.3498 80.214 12.1023 80.214C10.1885 80.214 7.97467 79.9402 5.62943 79.41V75.5061C7.95433 76.1387 10.0839 76.4764 11.7406 76.4764C13.91 76.4764 15.0721 75.8721 15.0721 74.7456C15.0721 74.0687 14.6182 73.5712 13.5789 73.1071L9.59797 71.3342C6.64698 70.0181 5.28516 68.2452 5.28516 65.7176C5.28516 62.0955 8.47582 59.7859 13.4815 59.7859C15.2341 59.7859 17.3912 60.0524 19.1671 60.4882ZM23.4929 60.1817H29.3753V79.8182H23.4929V60.1817ZM48.5011 60.1817V63.7791H39.6206V68.2081H47.3783V71.462H39.6206V76.0537H48.6159V79.8182H33.9045V60.1817H48.5011ZM76.2911 60.1817V79.8182H70.5997V66.8935L65.0246 79.9714H61.4265L55.8891 66.8935V79.8182H51.9591V60.1817H59.1423L64.2206 72.1258L69.2728 60.1817H76.2911ZM95.4322 60.1817V63.7791H86.5385V68.2081H94.294V71.462H86.5385V76.0537H95.5324V79.8182H80.808V60.1817H95.4322ZM116.152 60.1817V79.8182H109.874L102.806 67.224V79.8182H98.8749V60.1817H105.318L112.235 72.6096V60.1817H116.152ZM133.223 60.4882V64.265C131.44 63.6411 129.46 63.27 127.921 63.27C125.955 63.27 124.879 63.8503 124.879 64.9136C124.879 65.6065 125.318 66.0205 126.717 66.6524L130.338 68.2844C133.269 69.6056 134.717 71.4961 134.717 74.0033C134.717 77.8077 131.404 80.2154 126.168 80.2154C124.251 80.2154 122.029 79.9402 119.686 79.4114V75.5075C122.008 76.1387 124.134 76.4779 125.779 76.4779C127.934 76.4779 129.128 75.8736 129.128 74.7827C129.128 74.0607 128.71 73.5952 127.621 73.1085L123.656 71.3356C120.687 70.0094 119.341 68.2568 119.341 65.7198C119.341 62.0999 122.533 59.7888 127.527 59.7888C129.285 59.7866 131.45 60.0524 133.223 60.4882Z" fill="#ADB1C7"/>
</svg>
