<svg width="568" height="400" viewBox="0 0 568 400" fill="none" xmlns="http://www.w3.org/2000/svg">
<rect width="568" height="400" rx="20" fill="#F0F0F2"/>
<rect x="40" y="40" width="488" height="96" rx="24" fill="white"/>
<rect x="62" y="62" width="52" height="52" rx="12" fill="#F1F5F9"/>
<g clip-path="url(#clip0_279_401)">
<path d="M93.24 94.7867C93.1262 94.8867 92.9837 94.9483 92.8329 94.9627C92.6821 94.977 92.5306 94.9434 92.4 94.8667C91.5766 94.2021 90.8808 93.3934 90.3466 92.48C89.6399 93.3486 88.7372 94.0371 87.7128 94.4891C86.6883 94.941 85.5712 95.1436 84.4533 95.08C83.7222 95.1222 82.9907 95.0054 82.3092 94.7376C81.6276 94.4699 81.0122 94.0576 80.5053 93.5291C79.9984 93.0007 79.6121 92.3686 79.3729 91.6765C79.1337 90.9844 79.0474 90.2487 79.12 89.52C79.0766 88.2741 79.4181 87.0451 80.098 86.0001C80.7779 84.9552 81.7633 84.1451 82.92 83.68C85.074 82.9599 87.3177 82.5426 89.5866 82.44V82C89.7128 81.0871 89.5594 80.1574 89.1466 79.3334C88.913 79.0283 88.6092 78.7841 88.261 78.6216C87.9128 78.4591 87.5305 78.3831 87.1466 78.4C86.4886 78.3539 85.8369 78.5532 85.3173 78.9595C84.7977 79.3658 84.4471 79.9503 84.3333 80.6C84.307 80.7595 84.2331 80.9073 84.1213 81.0239C84.0094 81.1405 83.8648 81.2205 83.7066 81.2534L80.24 80.88C80.1546 80.869 80.0724 80.8404 79.9985 80.7961C79.9247 80.7519 79.8608 80.6929 79.8107 80.6228C79.7607 80.5528 79.7256 80.4732 79.7077 80.3889C79.6898 80.3047 79.6894 80.2177 79.7066 80.1334C80.5066 76 84.3066 74.6667 87.7066 74.6667C89.6386 74.6053 91.5294 75.2339 93.04 76.44C94.8133 78.0667 94.6666 80.24 94.6666 82.6667V88.2267C94.67 89.4592 95.1475 90.6432 96 91.5334C96.2266 91.8667 96.28 92.2534 96 92.48L93.2533 94.8534M89.6533 86.1467V85.3334C87.0666 85.3334 84.32 85.8534 84.32 88.8934C84.32 90.44 85.1333 91.4934 86.4933 91.4934C87.0143 91.4684 87.5191 91.3044 87.9552 91.0184C88.3913 90.7323 88.7429 90.3346 88.9733 89.8667C89.5399 88.6899 89.7706 87.3796 89.64 86.08M98.88 98.08C95.7058 100.219 91.961 101.353 88.1333 101.333C83.2836 101.358 78.5998 99.5698 75 96.32C74.7333 96.08 75 95.7467 75.3333 95.9334C79.3218 98.2218 83.8416 99.4218 88.44 99.4134C91.8818 99.3832 95.2841 98.6764 98.4533 97.3334C98.9466 97.12 99.3333 97.6534 98.88 98.0134M100.093 96.68C99.72 96.2 97.6266 96.4534 96.6666 96.5734C96.4133 96.5734 96.3733 96.36 96.6666 96.1734C97.3555 95.7396 98.1361 95.4728 98.9463 95.3941C99.7565 95.3154 100.574 95.427 101.333 95.72C101.431 96.5363 101.332 97.3642 101.045 98.1343C100.757 98.9045 100.289 99.5945 99.68 100.147C99.44 100.36 99.2133 100.24 99.3333 100C99.68 99.1067 100.467 97.1467 100.093 96.6667V96.68Z" fill="#171717"/>
</g>
<path d="M130.4 83L135.08 68.6H138.09L142.77 83H140.6L136.29 69.86H136.83L132.57 83H130.4ZM132.83 79.75V77.79H140.35V79.75H132.83ZM157.504 83L157.514 76.27C157.514 75.49 157.314 74.8833 156.914 74.45C156.514 74.01 155.987 73.79 155.334 73.79C154.934 73.79 154.567 73.8833 154.234 74.07C153.907 74.25 153.641 74.5233 153.434 74.89C153.234 75.25 153.134 75.7033 153.134 76.25L152.124 75.74C152.111 74.98 152.271 74.3133 152.604 73.74C152.944 73.1667 153.404 72.7233 153.984 72.41C154.564 72.09 155.214 71.93 155.934 71.93C157.101 71.93 158.004 72.28 158.644 72.98C159.284 73.68 159.604 74.61 159.604 75.77L159.594 83H157.504ZM144.554 83V72.2H146.414V75.32H146.654V83H144.554ZM151.034 83L151.044 76.31C151.044 75.5233 150.844 74.9067 150.444 74.46C150.051 74.0133 149.521 73.79 148.854 73.79C148.194 73.79 147.661 74.0167 147.254 74.47C146.854 74.9233 146.654 75.5167 146.654 76.25L145.654 75.61C145.654 74.9033 145.824 74.2733 146.164 73.72C146.504 73.1667 146.964 72.73 147.544 72.41C148.124 72.09 148.781 71.93 149.514 71.93C150.281 71.93 150.934 72.0933 151.474 72.42C152.014 72.74 152.424 73.19 152.704 73.77C152.991 74.35 153.134 75.0233 153.134 75.79L153.124 83H151.034ZM165.251 83.3C164.451 83.3 163.781 83.1533 163.241 82.86C162.701 82.56 162.291 82.1667 162.011 81.68C161.737 81.1867 161.601 80.6467 161.601 80.06C161.601 79.5133 161.697 79.0333 161.891 78.62C162.084 78.2067 162.371 77.8567 162.751 77.57C163.131 77.2767 163.597 77.04 164.151 76.86C164.631 76.72 165.174 76.5967 165.781 76.49C166.387 76.3833 167.024 76.2833 167.691 76.19C168.364 76.0967 169.031 76.0033 169.691 75.91L168.931 76.33C168.944 75.4833 168.764 74.8567 168.391 74.45C168.024 74.0367 167.391 73.83 166.491 73.83C165.924 73.83 165.404 73.9633 164.931 74.23C164.457 74.49 164.127 74.9233 163.941 75.53L161.991 74.93C162.257 74.0033 162.764 73.2667 163.511 72.72C164.264 72.1733 165.264 71.9 166.511 71.9C167.477 71.9 168.317 72.0667 169.031 72.4C169.751 72.7267 170.277 73.2467 170.611 73.96C170.784 74.3133 170.891 74.6867 170.931 75.08C170.971 75.4733 170.991 75.8967 170.991 76.35V83H169.141V80.53L169.501 80.85C169.054 81.6767 168.484 82.2933 167.791 82.7C167.104 83.1 166.257 83.3 165.251 83.3ZM165.621 81.59C166.214 81.59 166.724 81.4867 167.151 81.28C167.577 81.0667 167.921 80.7967 168.181 80.47C168.441 80.1433 168.611 79.8033 168.691 79.45C168.804 79.13 168.867 78.77 168.881 78.37C168.901 77.97 168.911 77.65 168.911 77.41L169.591 77.66C168.931 77.76 168.331 77.85 167.791 77.93C167.251 78.01 166.761 78.09 166.321 78.17C165.887 78.2433 165.501 78.3333 165.161 78.44C164.874 78.54 164.617 78.66 164.391 78.8C164.171 78.94 163.994 79.11 163.861 79.31C163.734 79.51 163.671 79.7533 163.671 80.04C163.671 80.32 163.741 80.58 163.881 80.82C164.021 81.0533 164.234 81.24 164.521 81.38C164.807 81.52 165.174 81.59 165.621 81.59ZM172.588 83V82.67L178.718 74.07H173.148V72.2H182.038V72.54L175.918 81.13H181.738V83H172.588ZM188.121 83.3C187.041 83.3 186.105 83.0567 185.311 82.57C184.518 82.0833 183.905 81.4133 183.471 80.56C183.045 79.7 182.831 78.71 182.831 77.59C182.831 76.4633 183.051 75.4733 183.491 74.62C183.931 73.76 184.548 73.0933 185.341 72.62C186.135 72.14 187.061 71.9 188.121 71.9C189.201 71.9 190.138 72.1433 190.931 72.63C191.725 73.1167 192.338 73.7867 192.771 74.64C193.205 75.4933 193.421 76.4767 193.421 77.59C193.421 78.7167 193.201 79.71 192.761 80.57C192.328 81.4233 191.715 82.0933 190.921 82.58C190.128 83.06 189.195 83.3 188.121 83.3ZM188.121 81.33C189.155 81.33 189.925 80.9833 190.431 80.29C190.945 79.59 191.201 78.69 191.201 77.59C191.201 76.4633 190.941 75.5633 190.421 74.89C189.908 74.21 189.141 73.87 188.121 73.87C187.421 73.87 186.845 74.03 186.391 74.35C185.938 74.6633 185.601 75.1 185.381 75.66C185.161 76.2133 185.051 76.8567 185.051 77.59C185.051 78.7233 185.311 79.63 185.831 80.31C186.351 80.99 187.115 81.33 188.121 81.33ZM203.199 83V77.69C203.199 77.27 203.162 76.84 203.089 76.4C203.022 75.9533 202.889 75.54 202.689 75.16C202.495 74.78 202.219 74.4733 201.859 74.24C201.505 74.0067 201.042 73.89 200.469 73.89C200.095 73.89 199.742 73.9533 199.409 74.08C199.075 74.2 198.782 74.3967 198.529 74.67C198.282 74.9433 198.085 75.3033 197.939 75.75C197.799 76.1967 197.729 76.74 197.729 77.38L196.429 76.89C196.429 75.91 196.612 75.0467 196.979 74.3C197.345 73.5467 197.872 72.96 198.559 72.54C199.245 72.12 200.075 71.91 201.049 71.91C201.795 71.91 202.422 72.03 202.929 72.27C203.435 72.51 203.845 72.8267 204.159 73.22C204.479 73.6067 204.722 74.03 204.889 74.49C205.055 74.95 205.169 75.4 205.229 75.84C205.289 76.28 205.319 76.6667 205.319 77V83H203.199ZM195.609 83V72.2H197.479V75.32H197.729V83H195.609Z" fill="#171717"/>
<path d="M137.773 101.273C137.705 100.697 137.428 100.25 136.943 99.9318C136.458 99.6136 135.864 99.4545 135.159 99.4545C134.644 99.4545 134.193 99.5379 133.807 99.7045C133.424 99.8712 133.125 100.1 132.909 100.392C132.697 100.684 132.591 101.015 132.591 101.386C132.591 101.697 132.665 101.964 132.812 102.188C132.964 102.407 133.157 102.591 133.392 102.739C133.627 102.883 133.873 103.002 134.131 103.097C134.388 103.187 134.625 103.261 134.841 103.318L136.023 103.636C136.326 103.716 136.663 103.826 137.034 103.966C137.409 104.106 137.767 104.297 138.108 104.54C138.453 104.778 138.737 105.085 138.96 105.46C139.184 105.835 139.295 106.295 139.295 106.841C139.295 107.47 139.131 108.038 138.801 108.545C138.475 109.053 137.998 109.456 137.369 109.756C136.744 110.055 135.985 110.205 135.091 110.205C134.258 110.205 133.536 110.07 132.926 109.801C132.32 109.532 131.843 109.157 131.494 108.676C131.15 108.195 130.955 107.636 130.909 107H132.364C132.402 107.439 132.549 107.803 132.807 108.091C133.068 108.375 133.398 108.587 133.795 108.727C134.197 108.864 134.629 108.932 135.091 108.932C135.629 108.932 136.112 108.845 136.54 108.67C136.968 108.492 137.307 108.246 137.557 107.932C137.807 107.614 137.932 107.242 137.932 106.818C137.932 106.432 137.824 106.117 137.608 105.875C137.392 105.633 137.108 105.436 136.756 105.284C136.403 105.133 136.023 105 135.614 104.886L134.182 104.477C133.273 104.216 132.553 103.843 132.023 103.358C131.492 102.873 131.227 102.239 131.227 101.455C131.227 100.803 131.403 100.235 131.756 99.75C132.112 99.2614 132.589 98.8826 133.188 98.6136C133.79 98.3409 134.462 98.2045 135.205 98.2045C135.955 98.2045 136.621 98.339 137.205 98.608C137.788 98.8731 138.25 99.2367 138.591 99.6989C138.936 100.161 139.117 100.686 139.136 101.273H137.773ZM142.771 104.75V110H141.43V98.3636H142.771V102.636H142.885C143.089 102.186 143.396 101.828 143.805 101.562C144.218 101.294 144.768 101.159 145.453 101.159C146.048 101.159 146.569 101.278 147.016 101.517C147.463 101.752 147.809 102.114 148.055 102.602C148.305 103.087 148.43 103.705 148.43 104.455V110H147.089V104.545C147.089 103.852 146.91 103.316 146.55 102.938C146.194 102.555 145.699 102.364 145.067 102.364C144.627 102.364 144.233 102.456 143.885 102.642C143.54 102.828 143.268 103.098 143.067 103.455C142.87 103.811 142.771 104.242 142.771 104.75ZM154.429 110.182C153.641 110.182 152.95 109.994 152.355 109.619C151.764 109.244 151.302 108.72 150.969 108.045C150.639 107.371 150.474 106.583 150.474 105.682C150.474 104.773 150.639 103.979 150.969 103.301C151.302 102.623 151.764 102.097 152.355 101.722C152.95 101.347 153.641 101.159 154.429 101.159C155.217 101.159 155.906 101.347 156.497 101.722C157.092 102.097 157.554 102.623 157.884 103.301C158.217 103.979 158.384 104.773 158.384 105.682C158.384 106.583 158.217 107.371 157.884 108.045C157.554 108.72 157.092 109.244 156.497 109.619C155.906 109.994 155.217 110.182 154.429 110.182ZM154.429 108.977C155.027 108.977 155.52 108.824 155.906 108.517C156.293 108.21 156.579 107.807 156.764 107.307C156.95 106.807 157.043 106.265 157.043 105.682C157.043 105.098 156.95 104.555 156.764 104.051C156.579 103.547 156.293 103.14 155.906 102.83C155.52 102.519 155.027 102.364 154.429 102.364C153.83 102.364 153.338 102.519 152.952 102.83C152.565 103.14 152.279 103.547 152.094 104.051C151.908 104.555 151.815 105.098 151.815 105.682C151.815 106.265 151.908 106.807 152.094 107.307C152.279 107.807 152.565 108.21 152.952 108.517C153.338 108.824 153.83 108.977 154.429 108.977ZM160.43 113.273V101.273H161.726V102.659H161.885C161.983 102.508 162.12 102.314 162.294 102.08C162.472 101.841 162.726 101.629 163.055 101.443C163.389 101.254 163.839 101.159 164.408 101.159C165.143 101.159 165.79 101.343 166.351 101.71C166.911 102.078 167.349 102.598 167.663 103.273C167.978 103.947 168.135 104.742 168.135 105.659C168.135 106.583 167.978 107.384 167.663 108.062C167.349 108.737 166.913 109.259 166.357 109.631C165.8 109.998 165.158 110.182 164.43 110.182C163.87 110.182 163.421 110.089 163.084 109.903C162.747 109.714 162.487 109.5 162.305 109.261C162.124 109.019 161.983 108.818 161.885 108.659H161.771V113.273H160.43ZM161.749 105.636C161.749 106.295 161.845 106.877 162.038 107.381C162.232 107.881 162.514 108.273 162.885 108.557C163.256 108.837 163.711 108.977 164.249 108.977C164.809 108.977 165.277 108.83 165.652 108.534C166.031 108.235 166.315 107.833 166.504 107.33C166.697 106.822 166.794 106.258 166.794 105.636C166.794 105.023 166.699 104.47 166.51 103.977C166.324 103.481 166.042 103.089 165.663 102.801C165.288 102.509 164.817 102.364 164.249 102.364C163.703 102.364 163.245 102.502 162.874 102.778C162.502 103.051 162.222 103.434 162.033 103.926C161.843 104.415 161.749 104.985 161.749 105.636ZM170.18 113.273V101.273H171.476V102.659H171.635C171.733 102.508 171.87 102.314 172.044 102.08C172.222 101.841 172.476 101.629 172.805 101.443C173.139 101.254 173.589 101.159 174.158 101.159C174.893 101.159 175.54 101.343 176.101 101.71C176.661 102.078 177.099 102.598 177.413 103.273C177.728 103.947 177.885 104.742 177.885 105.659C177.885 106.583 177.728 107.384 177.413 108.062C177.099 108.737 176.663 109.259 176.107 109.631C175.55 109.998 174.908 110.182 174.18 110.182C173.62 110.182 173.171 110.089 172.834 109.903C172.497 109.714 172.237 109.5 172.055 109.261C171.874 109.019 171.733 108.818 171.635 108.659H171.521V113.273H170.18ZM171.499 105.636C171.499 106.295 171.595 106.877 171.788 107.381C171.982 107.881 172.264 108.273 172.635 108.557C173.006 108.837 173.461 108.977 173.999 108.977C174.559 108.977 175.027 108.83 175.402 108.534C175.781 108.235 176.065 107.833 176.254 107.33C176.447 106.822 176.544 106.258 176.544 105.636C176.544 105.023 176.449 104.47 176.26 103.977C176.074 103.481 175.792 103.089 175.413 102.801C175.038 102.509 174.567 102.364 173.999 102.364C173.453 102.364 172.995 102.502 172.624 102.778C172.252 103.051 171.972 103.434 171.783 103.926C171.593 104.415 171.499 104.985 171.499 105.636ZM179.93 110V101.273H181.271V110H179.93ZM180.612 99.8182C180.351 99.8182 180.125 99.7292 179.936 99.5511C179.75 99.3731 179.658 99.1591 179.658 98.9091C179.658 98.6591 179.75 98.4451 179.936 98.267C180.125 98.089 180.351 98 180.612 98C180.874 98 181.097 98.089 181.283 98.267C181.472 98.4451 181.567 98.6591 181.567 98.9091C181.567 99.1591 181.472 99.3731 181.283 99.5511C181.097 99.7292 180.874 99.8182 180.612 99.8182ZM185.068 104.75V110H183.727V101.273H185.023V102.636H185.136C185.341 102.193 185.652 101.837 186.068 101.568C186.485 101.295 187.023 101.159 187.682 101.159C188.273 101.159 188.79 101.28 189.233 101.523C189.676 101.761 190.021 102.125 190.267 102.614C190.513 103.098 190.636 103.712 190.636 104.455V110H189.295V104.545C189.295 103.86 189.117 103.326 188.761 102.943C188.405 102.557 187.917 102.364 187.295 102.364C186.867 102.364 186.485 102.456 186.148 102.642C185.814 102.828 185.551 103.098 185.358 103.455C185.165 103.811 185.068 104.242 185.068 104.75ZM196.609 113.455C195.962 113.455 195.405 113.371 194.939 113.205C194.473 113.042 194.085 112.826 193.774 112.557C193.467 112.292 193.223 112.008 193.041 111.705L194.109 110.955C194.231 111.114 194.384 111.295 194.57 111.5C194.755 111.708 195.009 111.888 195.331 112.04C195.657 112.195 196.083 112.273 196.609 112.273C197.314 112.273 197.895 112.102 198.354 111.761C198.812 111.42 199.041 110.886 199.041 110.159V108.386H198.928C198.829 108.545 198.689 108.742 198.507 108.977C198.329 109.208 198.071 109.415 197.734 109.597C197.401 109.775 196.95 109.864 196.382 109.864C195.678 109.864 195.045 109.697 194.484 109.364C193.928 109.03 193.486 108.545 193.161 107.909C192.839 107.273 192.678 106.5 192.678 105.591C192.678 104.697 192.835 103.919 193.149 103.256C193.464 102.589 193.901 102.074 194.462 101.71C195.022 101.343 195.67 101.159 196.405 101.159C196.973 101.159 197.424 101.254 197.757 101.443C198.094 101.629 198.352 101.841 198.53 102.08C198.712 102.314 198.852 102.508 198.95 102.659H199.087V101.273H200.382V110.25C200.382 111 200.212 111.61 199.871 112.08C199.534 112.553 199.079 112.9 198.507 113.119C197.939 113.343 197.306 113.455 196.609 113.455ZM196.564 108.659C197.102 108.659 197.556 108.536 197.928 108.29C198.299 108.044 198.581 107.689 198.774 107.227C198.967 106.765 199.064 106.212 199.064 105.568C199.064 104.939 198.969 104.384 198.78 103.903C198.59 103.422 198.31 103.045 197.939 102.773C197.568 102.5 197.109 102.364 196.564 102.364C195.996 102.364 195.522 102.508 195.143 102.795C194.768 103.083 194.486 103.47 194.297 103.955C194.111 104.439 194.018 104.977 194.018 105.568C194.018 106.174 194.113 106.71 194.303 107.176C194.496 107.638 194.78 108.002 195.155 108.267C195.534 108.528 196.003 108.659 196.564 108.659Z" fill="#383838"/>
<path d="M430.08 89.577V88.065H435.48V89.577H430.08ZM437.819 81.54H440.996C441.122 81.54 441.278 81.546 441.464 81.558C441.65 81.564 441.824 81.582 441.986 81.612C442.712 81.726 443.315 81.975 443.795 82.359C444.281 82.737 444.644 83.214 444.884 83.79C445.124 84.36 445.244 84.993 445.244 85.689C445.244 86.703 445.001 87.567 444.515 88.281C444.029 88.989 443.3 89.463 442.328 89.703C442.094 89.763 441.878 89.802 441.68 89.82C441.482 89.838 441.248 89.847 440.978 89.847H437.819V88.065H440.924C441.038 88.065 441.167 88.059 441.311 88.047C441.461 88.035 441.602 88.014 441.734 87.984C442.124 87.888 442.433 87.72 442.661 87.48C442.895 87.24 443.063 86.961 443.165 86.643C443.273 86.325 443.327 86.007 443.327 85.689C443.327 85.371 443.273 85.053 443.165 84.735C443.063 84.417 442.895 84.138 442.661 83.898C442.433 83.658 442.124 83.493 441.734 83.403C441.602 83.367 441.461 83.343 441.311 83.331C441.167 83.319 441.038 83.313 440.924 83.313H437.819V81.54ZM437.819 89.847L439.835 89.307L445.694 94.5H443.03L437.819 89.847ZM437.864 86.427V84.96H446.684V86.427H437.864ZM440.78 83.007V81.54H446.63V83.007H440.78ZM451.099 94.5V83.61L448.66 85.095V82.998L451.099 81.54H453.016V94.5H451.099ZM460.277 94.77C459.611 94.77 458.99 94.635 458.414 94.365C457.844 94.089 457.355 93.711 456.947 93.231C456.539 92.745 456.248 92.187 456.074 91.557L457.883 91.071C457.985 91.455 458.159 91.788 458.405 92.07C458.657 92.352 458.951 92.571 459.287 92.727C459.623 92.877 459.971 92.952 460.331 92.952C460.805 92.952 461.234 92.838 461.618 92.61C462.008 92.382 462.314 92.076 462.536 91.692C462.764 91.308 462.878 90.885 462.878 90.423C462.878 89.949 462.761 89.52 462.527 89.136C462.299 88.752 461.99 88.449 461.6 88.227C461.216 87.999 460.793 87.885 460.331 87.885C459.803 87.885 459.356 87.99 458.99 88.2C458.624 88.41 458.339 88.653 458.135 88.929L456.497 88.353L456.893 81.54H463.886V83.313H457.856L458.621 82.602L458.306 87.705L457.937 87.228C458.279 86.886 458.687 86.625 459.161 86.445C459.635 86.265 460.106 86.175 460.574 86.175C461.378 86.175 462.095 86.361 462.725 86.733C463.361 87.105 463.862 87.612 464.228 88.254C464.594 88.89 464.777 89.613 464.777 90.423C464.777 91.227 464.57 91.959 464.156 92.619C463.742 93.273 463.193 93.795 462.509 94.185C461.825 94.575 461.081 94.77 460.277 94.77ZM471.446 94.77C470.564 94.77 469.784 94.578 469.106 94.194C468.428 93.804 467.894 93.27 467.504 92.592C467.12 91.914 466.928 91.134 466.928 90.252V85.788C466.928 84.906 467.12 84.126 467.504 83.448C467.894 82.77 468.428 82.239 469.106 81.855C469.784 81.465 470.564 81.27 471.446 81.27C472.328 81.27 473.108 81.465 473.786 81.855C474.464 82.239 474.995 82.77 475.379 83.448C475.769 84.126 475.964 84.906 475.964 85.788V90.252C475.964 91.134 475.769 91.914 475.379 92.592C474.995 93.27 474.464 93.804 473.786 94.194C473.108 94.578 472.328 94.77 471.446 94.77ZM471.446 92.97C471.926 92.97 472.361 92.856 472.751 92.628C473.147 92.394 473.462 92.082 473.696 91.692C473.93 91.296 474.047 90.855 474.047 90.369V85.653C474.047 85.173 473.93 84.738 473.696 84.348C473.462 83.952 473.147 83.64 472.751 83.412C472.361 83.178 471.926 83.061 471.446 83.061C470.966 83.061 470.528 83.178 470.132 83.412C469.742 83.64 469.43 83.952 469.196 84.348C468.962 84.738 468.845 85.173 468.845 85.653V90.369C468.845 90.855 468.962 91.296 469.196 91.692C469.43 92.082 469.742 92.394 470.132 92.628C470.528 92.856 470.966 92.97 471.446 92.97ZM478.801 94.5V92.511H480.79V94.5H478.801ZM488.145 94.77C487.263 94.77 486.483 94.578 485.805 94.194C485.127 93.804 484.593 93.27 484.203 92.592C483.819 91.914 483.627 91.134 483.627 90.252V85.788C483.627 84.906 483.819 84.126 484.203 83.448C484.593 82.77 485.127 82.239 485.805 81.855C486.483 81.465 487.263 81.27 488.145 81.27C489.027 81.27 489.807 81.465 490.485 81.855C491.163 82.239 491.694 82.77 492.078 83.448C492.468 84.126 492.663 84.906 492.663 85.788V90.252C492.663 91.134 492.468 91.914 492.078 92.592C491.694 93.27 491.163 93.804 490.485 94.194C489.807 94.578 489.027 94.77 488.145 94.77ZM488.145 92.97C488.625 92.97 489.06 92.856 489.45 92.628C489.846 92.394 490.161 92.082 490.395 91.692C490.629 91.296 490.746 90.855 490.746 90.369V85.653C490.746 85.173 490.629 84.738 490.395 84.348C490.161 83.952 489.846 83.64 489.45 83.412C489.06 83.178 488.625 83.061 488.145 83.061C487.665 83.061 487.227 83.178 486.831 83.412C486.441 83.64 486.129 83.952 485.895 84.348C485.661 84.738 485.544 85.173 485.544 85.653V90.369C485.544 90.855 485.661 91.296 485.895 91.692C486.129 92.082 486.441 92.394 486.831 92.628C487.227 92.856 487.665 92.97 488.145 92.97ZM499.694 94.77C498.812 94.77 498.032 94.578 497.354 94.194C496.676 93.804 496.142 93.27 495.752 92.592C495.368 91.914 495.176 91.134 495.176 90.252V85.788C495.176 84.906 495.368 84.126 495.752 83.448C496.142 82.77 496.676 82.239 497.354 81.855C498.032 81.465 498.812 81.27 499.694 81.27C500.576 81.27 501.356 81.465 502.034 81.855C502.712 82.239 503.243 82.77 503.627 83.448C504.017 84.126 504.212 84.906 504.212 85.788V90.252C504.212 91.134 504.017 91.914 503.627 92.592C503.243 93.27 502.712 93.804 502.034 94.194C501.356 94.578 500.576 94.77 499.694 94.77ZM499.694 92.97C500.174 92.97 500.609 92.856 500.999 92.628C501.395 92.394 501.71 92.082 501.944 91.692C502.178 91.296 502.295 90.855 502.295 90.369V85.653C502.295 85.173 502.178 84.738 501.944 84.348C501.71 83.952 501.395 83.64 500.999 83.412C500.609 83.178 500.174 83.061 499.694 83.061C499.214 83.061 498.776 83.178 498.38 83.412C497.99 83.64 497.678 83.952 497.444 84.348C497.21 84.738 497.093 85.173 497.093 85.653V90.369C497.093 90.855 497.21 91.296 497.444 91.692C497.678 92.082 497.99 92.394 498.38 92.628C498.776 92.856 499.214 92.97 499.694 92.97Z" fill="#171717"/>
<rect x="40" y="152" width="488" height="96" rx="24" fill="white"/>
<rect x="62" y="174" width="52" height="52" rx="12" fill="#F1F5F9"/>
<path d="M72 194.627V201.24C72 203.733 73.7333 205.373 76 205.373C77.1067 205.373 78.08 204.947 78.7867 204.213V205.2H80.36V194.627H78.7733V201.147C78.7733 202.827 77.64 203.96 76.1867 203.96C74.7067 203.96 73.5867 202.853 73.5867 201.147V194.627H72ZM81.92 194.627V205.2H83.4267V204.227C83.7851 204.591 84.2127 204.88 84.6844 205.077C85.156 205.274 85.6622 205.375 86.1733 205.373C86.7054 205.379 87.2331 205.278 87.7257 205.077C88.2183 204.876 88.6657 204.578 89.042 204.202C89.4182 203.826 89.7156 203.378 89.9167 202.886C90.1178 202.393 90.2187 201.865 90.2133 201.333C90.2134 200.805 90.1086 200.281 89.9051 199.793C89.7016 199.305 89.4033 198.863 89.0277 198.491C88.652 198.119 88.2063 197.825 87.7164 197.626C87.2264 197.428 86.702 197.328 86.1733 197.333C85.6643 197.332 85.1601 197.433 84.6907 197.63C84.2213 197.827 83.796 198.116 83.44 198.48V194.627H81.92ZM95.08 197.333C92.8267 197.333 91.12 199.173 91.12 201.333C91.12 203.64 92.9067 205.333 95.2133 205.333C96.6267 205.333 97.7733 204.747 98.5333 203.72L97.44 202.893C96.8667 203.667 96.1067 204 95.2133 204C93.92 204 92.88 203.093 92.6667 201.84H98.9333V201.333C98.9333 199.053 97.2933 197.333 95.08 197.333ZM103.467 197.44C102.627 197.44 102 197.827 101.627 198.44V197.493H100.12V205.2H101.64V200.813C101.64 199.627 102.373 198.853 103.373 198.853H104V197.427H103.467M95.0533 198.667C96.1867 198.667 97.1333 199.453 97.3867 200.627H92.6667C92.9733 199.453 93.92 198.667 95.0533 198.667ZM86.0667 198.667C87.52 198.667 88.7067 199.867 88.7067 201.333C88.7067 202.84 87.52 204 86.0667 204C85.3617 203.997 84.6869 203.714 84.1897 203.214C83.6924 202.715 83.4133 202.038 83.4133 201.333C83.4133 200.628 83.6924 199.952 84.1897 199.452C84.6869 198.953 85.3617 198.67 86.0667 198.667Z" fill="#171717"/>
<path d="M137.14 195.3C136.013 195.3 135.017 195.07 134.15 194.61C133.29 194.143 132.617 193.493 132.13 192.66C131.643 191.82 131.4 190.833 131.4 189.7V180.61L133.52 180.6V189.59C133.52 190.203 133.623 190.743 133.83 191.21C134.037 191.677 134.313 192.067 134.66 192.38C135.007 192.693 135.393 192.93 135.82 193.09C136.253 193.25 136.693 193.33 137.14 193.33C137.593 193.33 138.033 193.25 138.46 193.09C138.893 192.923 139.283 192.683 139.63 192.37C139.977 192.057 140.25 191.667 140.45 191.2C140.657 190.733 140.76 190.197 140.76 189.59V180.6H142.88V189.7C142.88 190.827 142.637 191.81 142.15 192.65C141.663 193.49 140.987 194.143 140.12 194.61C139.26 195.07 138.267 195.3 137.14 195.3ZM150.747 195.3C149.714 195.3 148.847 195.05 148.147 194.55C147.447 194.043 146.917 193.36 146.557 192.5C146.197 191.64 146.017 190.67 146.017 189.59C146.017 188.51 146.194 187.54 146.547 186.68C146.907 185.82 147.434 185.143 148.127 184.65C148.827 184.15 149.687 183.9 150.707 183.9C151.721 183.9 152.594 184.15 153.327 184.65C154.067 185.143 154.637 185.82 155.037 186.68C155.437 187.533 155.637 188.503 155.637 189.59C155.637 190.67 155.437 191.643 155.037 192.51C154.644 193.37 154.081 194.05 153.347 194.55C152.621 195.05 151.754 195.3 150.747 195.3ZM145.667 195V180.6H147.767V187.23H147.527V195H145.667ZM150.457 193.41C151.124 193.41 151.674 193.24 152.107 192.9C152.547 192.56 152.874 192.103 153.087 191.53C153.307 190.95 153.417 190.303 153.417 189.59C153.417 188.883 153.307 188.243 153.087 187.67C152.874 187.097 152.544 186.64 152.097 186.3C151.651 185.96 151.081 185.79 150.387 185.79C149.734 185.79 149.194 185.95 148.767 186.27C148.347 186.59 148.034 187.037 147.827 187.61C147.627 188.183 147.527 188.843 147.527 189.59C147.527 190.337 147.627 190.997 147.827 191.57C148.027 192.143 148.344 192.593 148.777 192.92C149.211 193.247 149.771 193.41 150.457 193.41ZM162.635 195.3C161.562 195.3 160.619 195.067 159.805 194.6C158.999 194.127 158.369 193.47 157.915 192.63C157.469 191.783 157.245 190.803 157.245 189.69C157.245 188.51 157.465 187.487 157.905 186.62C158.352 185.753 158.972 185.083 159.765 184.61C160.559 184.137 161.482 183.9 162.535 183.9C163.635 183.9 164.572 184.157 165.345 184.67C166.119 185.177 166.695 185.9 167.075 186.84C167.462 187.78 167.615 188.897 167.535 190.19H165.445V189.43C165.432 188.177 165.192 187.25 164.725 186.65C164.265 186.05 163.562 185.75 162.615 185.75C161.569 185.75 160.782 186.08 160.255 186.74C159.729 187.4 159.465 188.353 159.465 189.6C159.465 190.787 159.729 191.707 160.255 192.36C160.782 193.007 161.542 193.33 162.535 193.33C163.189 193.33 163.752 193.183 164.225 192.89C164.705 192.59 165.079 192.163 165.345 191.61L167.395 192.26C166.975 193.227 166.339 193.977 165.485 194.51C164.632 195.037 163.682 195.3 162.635 195.3ZM158.785 190.19V188.56H166.495V190.19H158.785ZM169.779 195V184.2H171.639V186.82L171.379 186.48C171.512 186.133 171.686 185.817 171.899 185.53C172.112 185.237 172.359 184.997 172.639 184.81C172.912 184.61 173.216 184.457 173.549 184.35C173.889 184.237 174.236 184.17 174.589 184.15C174.942 184.123 175.282 184.14 175.609 184.2V186.16C175.256 186.067 174.862 186.04 174.429 186.08C174.002 186.12 173.609 186.257 173.249 186.49C172.909 186.71 172.639 186.977 172.439 187.29C172.246 187.603 172.106 187.953 172.019 188.34C171.932 188.72 171.889 189.123 171.889 189.55V195H169.779Z" fill="#171717"/>
<path d="M130.773 211.614V210.364H139.5V211.614H135.841V222H134.432V211.614H130.773ZM140.587 222V213.273H141.882V214.591H141.973C142.132 214.159 142.42 213.809 142.837 213.54C143.253 213.271 143.723 213.136 144.246 213.136C144.344 213.136 144.467 213.138 144.615 213.142C144.763 213.146 144.875 213.152 144.95 213.159V214.523C144.905 214.511 144.801 214.494 144.638 214.472C144.479 214.445 144.31 214.432 144.132 214.432C143.708 214.432 143.329 214.521 142.996 214.699C142.666 214.873 142.405 215.116 142.212 215.426C142.022 215.733 141.928 216.083 141.928 216.477V222H140.587ZM149.108 222.205C148.555 222.205 148.053 222.1 147.602 221.892C147.152 221.68 146.794 221.375 146.528 220.977C146.263 220.576 146.131 220.091 146.131 219.523C146.131 219.023 146.229 218.617 146.426 218.307C146.623 217.992 146.886 217.746 147.216 217.568C147.545 217.39 147.909 217.258 148.307 217.17C148.708 217.08 149.112 217.008 149.517 216.955C150.047 216.886 150.477 216.835 150.807 216.801C151.14 216.763 151.383 216.701 151.534 216.614C151.689 216.527 151.767 216.375 151.767 216.159V216.114C151.767 215.553 151.614 215.117 151.307 214.807C151.004 214.496 150.544 214.341 149.926 214.341C149.286 214.341 148.784 214.481 148.42 214.761C148.057 215.042 147.801 215.341 147.653 215.659L146.381 215.205C146.608 214.674 146.911 214.261 147.29 213.966C147.672 213.667 148.089 213.458 148.54 213.341C148.994 213.22 149.441 213.159 149.881 213.159C150.161 213.159 150.483 213.193 150.847 213.261C151.214 213.326 151.568 213.46 151.909 213.665C152.254 213.869 152.54 214.178 152.767 214.591C152.994 215.004 153.108 215.557 153.108 216.25V222H151.767V220.818H151.699C151.608 221.008 151.456 221.21 151.244 221.426C151.032 221.642 150.75 221.826 150.398 221.977C150.045 222.129 149.616 222.205 149.108 222.205ZM149.312 221C149.843 221 150.29 220.896 150.653 220.688C151.021 220.479 151.297 220.21 151.483 219.881C151.672 219.551 151.767 219.205 151.767 218.841V217.614C151.71 217.682 151.585 217.744 151.392 217.801C151.203 217.854 150.983 217.902 150.733 217.943C150.487 217.981 150.246 218.015 150.011 218.045C149.78 218.072 149.593 218.095 149.449 218.114C149.1 218.159 148.775 218.233 148.472 218.335C148.172 218.434 147.93 218.583 147.744 218.784C147.563 218.981 147.472 219.25 147.472 219.591C147.472 220.057 147.644 220.409 147.989 220.648C148.337 220.883 148.778 221 149.312 221ZM156.896 216.75V222H155.555V213.273H156.851V214.636H156.964C157.169 214.193 157.48 213.837 157.896 213.568C158.313 213.295 158.851 213.159 159.51 213.159C160.101 213.159 160.618 213.28 161.061 213.523C161.504 213.761 161.849 214.125 162.095 214.614C162.341 215.098 162.464 215.712 162.464 216.455V222H161.124V216.545C161.124 215.86 160.946 215.326 160.589 214.943C160.233 214.557 159.745 214.364 159.124 214.364C158.696 214.364 158.313 214.456 157.976 214.642C157.643 214.828 157.379 215.098 157.186 215.455C156.993 215.811 156.896 216.242 156.896 216.75ZM171.097 215.227L169.892 215.568C169.816 215.367 169.705 215.172 169.557 214.983C169.413 214.79 169.216 214.631 168.966 214.506C168.716 214.381 168.396 214.318 168.006 214.318C167.472 214.318 167.027 214.441 166.67 214.688C166.318 214.93 166.142 215.239 166.142 215.614C166.142 215.947 166.263 216.21 166.506 216.403C166.748 216.597 167.127 216.758 167.642 216.886L168.938 217.205C169.718 217.394 170.299 217.684 170.682 218.074C171.064 218.46 171.256 218.958 171.256 219.568C171.256 220.068 171.112 220.515 170.824 220.909C170.54 221.303 170.142 221.614 169.631 221.841C169.119 222.068 168.525 222.182 167.847 222.182C166.956 222.182 166.22 221.989 165.636 221.602C165.053 221.216 164.684 220.652 164.528 219.909L165.801 219.591C165.922 220.061 166.152 220.413 166.489 220.648C166.83 220.883 167.275 221 167.824 221C168.449 221 168.945 220.867 169.312 220.602C169.684 220.333 169.869 220.011 169.869 219.636C169.869 219.333 169.763 219.08 169.551 218.875C169.339 218.667 169.013 218.511 168.574 218.409L167.119 218.068C166.32 217.879 165.733 217.585 165.358 217.188C164.987 216.786 164.801 216.284 164.801 215.682C164.801 215.189 164.939 214.754 165.216 214.375C165.496 213.996 165.877 213.699 166.358 213.483C166.843 213.267 167.392 213.159 168.006 213.159C168.869 213.159 169.547 213.348 170.04 213.727C170.536 214.106 170.888 214.606 171.097 215.227ZM173.274 225.273V213.273H174.57V214.659H174.729C174.827 214.508 174.964 214.314 175.138 214.08C175.316 213.841 175.57 213.629 175.899 213.443C176.232 213.254 176.683 213.159 177.251 213.159C177.986 213.159 178.634 213.343 179.195 213.71C179.755 214.078 180.193 214.598 180.507 215.273C180.821 215.947 180.979 216.742 180.979 217.659C180.979 218.583 180.821 219.384 180.507 220.062C180.193 220.737 179.757 221.259 179.2 221.631C178.643 221.998 178.001 222.182 177.274 222.182C176.714 222.182 176.265 222.089 175.928 221.903C175.59 221.714 175.331 221.5 175.149 221.261C174.967 221.019 174.827 220.818 174.729 220.659H174.615V225.273H173.274ZM174.592 217.636C174.592 218.295 174.689 218.877 174.882 219.381C175.075 219.881 175.357 220.273 175.729 220.557C176.1 220.837 176.554 220.977 177.092 220.977C177.653 220.977 178.121 220.83 178.496 220.534C178.875 220.235 179.159 219.833 179.348 219.33C179.541 218.822 179.638 218.258 179.638 217.636C179.638 217.023 179.543 216.47 179.354 215.977C179.168 215.481 178.886 215.089 178.507 214.801C178.132 214.509 177.661 214.364 177.092 214.364C176.547 214.364 176.089 214.502 175.717 214.778C175.346 215.051 175.066 215.434 174.876 215.926C174.687 216.415 174.592 216.985 174.592 217.636ZM186.57 222.182C185.782 222.182 185.09 221.994 184.496 221.619C183.905 221.244 183.443 220.72 183.109 220.045C182.78 219.371 182.615 218.583 182.615 217.682C182.615 216.773 182.78 215.979 183.109 215.301C183.443 214.623 183.905 214.097 184.496 213.722C185.09 213.347 185.782 213.159 186.57 213.159C187.357 213.159 188.047 213.347 188.638 213.722C189.232 214.097 189.695 214.623 190.024 215.301C190.357 215.979 190.524 216.773 190.524 217.682C190.524 218.583 190.357 219.371 190.024 220.045C189.695 220.72 189.232 221.244 188.638 221.619C188.047 221.994 187.357 222.182 186.57 222.182ZM186.57 220.977C187.168 220.977 187.661 220.824 188.047 220.517C188.433 220.21 188.719 219.807 188.905 219.307C189.09 218.807 189.183 218.265 189.183 217.682C189.183 217.098 189.09 216.555 188.905 216.051C188.719 215.547 188.433 215.14 188.047 214.83C187.661 214.519 187.168 214.364 186.57 214.364C185.971 214.364 185.479 214.519 185.092 214.83C184.706 215.14 184.42 215.547 184.234 216.051C184.049 216.555 183.956 217.098 183.956 217.682C183.956 218.265 184.049 218.807 184.234 219.307C184.42 219.807 184.706 220.21 185.092 220.517C185.479 220.824 185.971 220.977 186.57 220.977ZM192.571 222V213.273H193.866V214.591H193.957C194.116 214.159 194.404 213.809 194.821 213.54C195.238 213.271 195.707 213.136 196.23 213.136C196.329 213.136 196.452 213.138 196.599 213.142C196.747 213.146 196.859 213.152 196.935 213.159V214.523C196.889 214.511 196.785 214.494 196.622 214.472C196.463 214.445 196.295 214.432 196.116 214.432C195.692 214.432 195.313 214.521 194.98 214.699C194.651 214.873 194.389 215.116 194.196 215.426C194.007 215.733 193.912 216.083 193.912 216.477V222H192.571ZM202.866 213.273V214.409H198.344V213.273H202.866ZM199.662 211.182H201.003V219.5C201.003 219.879 201.058 220.163 201.168 220.352C201.281 220.538 201.425 220.663 201.599 220.727C201.777 220.788 201.965 220.818 202.162 220.818C202.31 220.818 202.431 220.811 202.526 220.795C202.62 220.777 202.696 220.761 202.753 220.75L203.026 221.955C202.935 221.989 202.808 222.023 202.645 222.057C202.482 222.095 202.276 222.114 202.026 222.114C201.647 222.114 201.276 222.032 200.912 221.869C200.552 221.706 200.253 221.458 200.014 221.125C199.779 220.792 199.662 220.371 199.662 219.864V211.182Z" fill="#383838"/>
<path d="M439.08 201.577V200.065H444.48V201.577H439.08ZM446.819 193.54H449.996C450.122 193.54 450.278 193.546 450.464 193.558C450.65 193.564 450.824 193.582 450.986 193.612C451.712 193.726 452.315 193.975 452.795 194.359C453.281 194.737 453.644 195.214 453.884 195.79C454.124 196.36 454.244 196.993 454.244 197.689C454.244 198.703 454.001 199.567 453.515 200.281C453.029 200.989 452.3 201.463 451.328 201.703C451.094 201.763 450.878 201.802 450.68 201.82C450.482 201.838 450.248 201.847 449.978 201.847H446.819V200.065H449.924C450.038 200.065 450.167 200.059 450.311 200.047C450.461 200.035 450.602 200.014 450.734 199.984C451.124 199.888 451.433 199.72 451.661 199.48C451.895 199.24 452.063 198.961 452.165 198.643C452.273 198.325 452.327 198.007 452.327 197.689C452.327 197.371 452.273 197.053 452.165 196.735C452.063 196.417 451.895 196.138 451.661 195.898C451.433 195.658 451.124 195.493 450.734 195.403C450.602 195.367 450.461 195.343 450.311 195.331C450.167 195.319 450.038 195.313 449.924 195.313H446.819V193.54ZM446.819 201.847L448.835 201.307L454.694 206.5H452.03L446.819 201.847ZM446.864 198.427V196.96H455.684V198.427H446.864ZM449.78 195.007V193.54H455.63V195.007H449.78ZM461.683 206.77C461.017 206.77 460.396 206.635 459.82 206.365C459.25 206.089 458.761 205.711 458.353 205.231C457.945 204.745 457.654 204.187 457.48 203.557L459.289 203.071C459.391 203.455 459.565 203.788 459.811 204.07C460.063 204.352 460.357 204.571 460.693 204.727C461.029 204.877 461.377 204.952 461.737 204.952C462.211 204.952 462.64 204.838 463.024 204.61C463.414 204.382 463.72 204.076 463.942 203.692C464.17 203.308 464.284 202.885 464.284 202.423C464.284 201.949 464.167 201.52 463.933 201.136C463.705 200.752 463.396 200.449 463.006 200.227C462.622 199.999 462.199 199.885 461.737 199.885C461.209 199.885 460.762 199.99 460.396 200.2C460.03 200.41 459.745 200.653 459.541 200.929L457.903 200.353L458.299 193.54H465.292V195.313H459.262L460.027 194.602L459.712 199.705L459.343 199.228C459.685 198.886 460.093 198.625 460.567 198.445C461.041 198.265 461.512 198.175 461.98 198.175C462.784 198.175 463.501 198.361 464.131 198.733C464.767 199.105 465.268 199.612 465.634 200.254C466 200.89 466.183 201.613 466.183 202.423C466.183 203.227 465.976 203.959 465.562 204.619C465.148 205.273 464.599 205.795 463.915 206.185C463.231 206.575 462.487 206.77 461.683 206.77ZM472.177 206.77C471.511 206.77 470.89 206.635 470.314 206.365C469.744 206.089 469.255 205.711 468.847 205.231C468.439 204.745 468.148 204.187 467.974 203.557L469.783 203.071C469.885 203.455 470.059 203.788 470.305 204.07C470.557 204.352 470.851 204.571 471.187 204.727C471.523 204.877 471.871 204.952 472.231 204.952C472.705 204.952 473.134 204.838 473.518 204.61C473.908 204.382 474.214 204.076 474.436 203.692C474.664 203.308 474.778 202.885 474.778 202.423C474.778 201.949 474.661 201.52 474.427 201.136C474.199 200.752 473.89 200.449 473.5 200.227C473.116 199.999 472.693 199.885 472.231 199.885C471.703 199.885 471.256 199.99 470.89 200.2C470.524 200.41 470.239 200.653 470.035 200.929L468.397 200.353L468.793 193.54H475.786V195.313H469.756L470.521 194.602L470.206 199.705L469.837 199.228C470.179 198.886 470.587 198.625 471.061 198.445C471.535 198.265 472.006 198.175 472.474 198.175C473.278 198.175 473.995 198.361 474.625 198.733C475.261 199.105 475.762 199.612 476.128 200.254C476.494 200.89 476.677 201.613 476.677 202.423C476.677 203.227 476.47 203.959 476.056 204.619C475.642 205.273 475.093 205.795 474.409 206.185C473.725 206.575 472.981 206.77 472.177 206.77ZM479.152 206.5V204.511H481.141V206.5H479.152ZM488.497 206.77C487.615 206.77 486.835 206.578 486.157 206.194C485.479 205.804 484.945 205.27 484.555 204.592C484.171 203.914 483.979 203.134 483.979 202.252V197.788C483.979 196.906 484.171 196.126 484.555 195.448C484.945 194.77 485.479 194.239 486.157 193.855C486.835 193.465 487.615 193.27 488.497 193.27C489.379 193.27 490.159 193.465 490.837 193.855C491.515 194.239 492.046 194.77 492.43 195.448C492.82 196.126 493.015 196.906 493.015 197.788V202.252C493.015 203.134 492.82 203.914 492.43 204.592C492.046 205.27 491.515 205.804 490.837 206.194C490.159 206.578 489.379 206.77 488.497 206.77ZM488.497 204.97C488.977 204.97 489.412 204.856 489.802 204.628C490.198 204.394 490.513 204.082 490.747 203.692C490.981 203.296 491.098 202.855 491.098 202.369V197.653C491.098 197.173 490.981 196.738 490.747 196.348C490.513 195.952 490.198 195.64 489.802 195.412C489.412 195.178 488.977 195.061 488.497 195.061C488.017 195.061 487.579 195.178 487.183 195.412C486.793 195.64 486.481 195.952 486.247 196.348C486.013 196.738 485.896 197.173 485.896 197.653V202.369C485.896 202.855 486.013 203.296 486.247 203.692C486.481 204.082 486.793 204.394 487.183 204.628C487.579 204.856 488.017 204.97 488.497 204.97ZM500.046 206.77C499.164 206.77 498.384 206.578 497.706 206.194C497.028 205.804 496.494 205.27 496.104 204.592C495.72 203.914 495.528 203.134 495.528 202.252V197.788C495.528 196.906 495.72 196.126 496.104 195.448C496.494 194.77 497.028 194.239 497.706 193.855C498.384 193.465 499.164 193.27 500.046 193.27C500.928 193.27 501.708 193.465 502.386 193.855C503.064 194.239 503.595 194.77 503.979 195.448C504.369 196.126 504.564 196.906 504.564 197.788V202.252C504.564 203.134 504.369 203.914 503.979 204.592C503.595 205.27 503.064 205.804 502.386 206.194C501.708 206.578 500.928 206.77 500.046 206.77ZM500.046 204.97C500.526 204.97 500.961 204.856 501.351 204.628C501.747 204.394 502.062 204.082 502.296 203.692C502.53 203.296 502.647 202.855 502.647 202.369V197.653C502.647 197.173 502.53 196.738 502.296 196.348C502.062 195.952 501.747 195.64 501.351 195.412C500.961 195.178 500.526 195.061 500.046 195.061C499.566 195.061 499.128 195.178 498.732 195.412C498.342 195.64 498.03 195.952 497.796 196.348C497.562 196.738 497.445 197.173 497.445 197.653V202.369C497.445 202.855 497.562 203.296 497.796 203.692C498.03 204.082 498.342 204.394 498.732 204.628C499.128 204.856 499.566 204.97 500.046 204.97Z" fill="#171717"/>
<rect x="40" y="264" width="488" height="96" rx="24" fill="white"/>
<rect x="62" y="286" width="52" height="52" rx="12" fill="#F1F5F9"/>
<path d="M84 322H79C78.2 322 77.4 321.6 76.9 321C76.4 320.4 76.2 319.6 76.4 318.8L80.7 300C81 298.8 82 298 83.3 298H91.9C94.2 298 96.3 299 97.8 300.8C99.2 302.6 99.8 304.9 99.3 307.2C98.5 311.2 94.9 314 90.8 314H87.6C87.1 314 86.6 314.4 86.5 314.9L85 321.2C84.9 321.7 84.5 322 84 322Z" fill="#171717"/>
<path d="M84 322H79C78.2 322 77.4 321.6 76.9 321C76.4 320.4 76.2 319.6 76.4 318.8L80.7 300C81 298.8 82 298 83.3 298H91.9C94.2 298 96.3 299 97.8 300.8C99.2 302.6 99.8 304.9 99.3 307.2C98.5 311.2 94.9 314 90.8 314H87.6C87.1 314 86.6 314.4 86.5 314.9L85 321.2C84.9 321.7 84.5 322 84 322Z" fill="#171717"/>
<path d="M101.3 307.3C101.3 307.4 101.3 307.5 101.3 307.6C100.3 312.5 95.9 316 90.9 316H88.4L87 321.7C86.6 323.1 85.4 324 84 324H82C82.1 324.4 82.2 324.7 82.5 325C83 325.6 83.7 325.9 84.5 325.9H89C89.5 325.9 89.9 325.6 90 325.2L91.4 319.7C91.5 319.3 91.9 319.1 92.3 319.1H95.2C98.9 319.1 102.2 316.6 102.9 313.1C103.3 311 102.7 308.8 101.3 307.3Z" fill="#171717"/>
<path d="M131.4 307V292.6H137.22C137.36 292.6 137.533 292.607 137.74 292.62C137.947 292.627 138.143 292.647 138.33 292.68C139.13 292.807 139.797 293.08 140.33 293.5C140.87 293.92 141.273 294.45 141.54 295.09C141.807 295.73 141.94 296.437 141.94 297.21C141.94 297.99 141.807 298.7 141.54 299.34C141.273 299.98 140.87 300.51 140.33 300.93C139.797 301.35 139.13 301.623 138.33 301.75C138.143 301.777 137.943 301.797 137.73 301.81C137.523 301.823 137.353 301.83 137.22 301.83H133.49V307H131.4ZM133.49 299.85H137.14C137.273 299.85 137.42 299.843 137.58 299.83C137.747 299.817 137.903 299.793 138.05 299.76C138.477 299.66 138.82 299.477 139.08 299.21C139.34 298.937 139.527 298.623 139.64 298.27C139.753 297.917 139.81 297.563 139.81 297.21C139.81 296.857 139.753 296.507 139.64 296.16C139.527 295.807 139.34 295.497 139.08 295.23C138.82 294.957 138.477 294.77 138.05 294.67C137.903 294.63 137.747 294.603 137.58 294.59C137.42 294.577 137.273 294.57 137.14 294.57H133.49V299.85ZM146.657 307.3C145.857 307.3 145.187 307.153 144.647 306.86C144.107 306.56 143.697 306.167 143.417 305.68C143.144 305.187 143.007 304.647 143.007 304.06C143.007 303.513 143.104 303.033 143.297 302.62C143.49 302.207 143.777 301.857 144.157 301.57C144.537 301.277 145.004 301.04 145.557 300.86C146.037 300.72 146.58 300.597 147.187 300.49C147.794 300.383 148.43 300.283 149.097 300.19C149.77 300.097 150.437 300.003 151.097 299.91L150.337 300.33C150.35 299.483 150.17 298.857 149.797 298.45C149.43 298.037 148.797 297.83 147.897 297.83C147.33 297.83 146.81 297.963 146.337 298.23C145.864 298.49 145.534 298.923 145.347 299.53L143.397 298.93C143.664 298.003 144.17 297.267 144.917 296.72C145.67 296.173 146.67 295.9 147.917 295.9C148.884 295.9 149.724 296.067 150.437 296.4C151.157 296.727 151.684 297.247 152.017 297.96C152.19 298.313 152.297 298.687 152.337 299.08C152.377 299.473 152.397 299.897 152.397 300.35V307H150.547V304.53L150.907 304.85C150.46 305.677 149.89 306.293 149.197 306.7C148.51 307.1 147.664 307.3 146.657 307.3ZM147.027 305.59C147.62 305.59 148.13 305.487 148.557 305.28C148.984 305.067 149.327 304.797 149.587 304.47C149.847 304.143 150.017 303.803 150.097 303.45C150.21 303.13 150.274 302.77 150.287 302.37C150.307 301.97 150.317 301.65 150.317 301.41L150.997 301.66C150.337 301.76 149.737 301.85 149.197 301.93C148.657 302.01 148.167 302.09 147.727 302.17C147.294 302.243 146.907 302.333 146.567 302.44C146.28 302.54 146.024 302.66 145.797 302.8C145.577 302.94 145.4 303.11 145.267 303.31C145.14 303.51 145.077 303.753 145.077 304.04C145.077 304.32 145.147 304.58 145.287 304.82C145.427 305.053 145.64 305.24 145.927 305.38C146.214 305.52 146.58 305.59 147.027 305.59ZM155.848 311.8L157.938 306.11L157.968 307.79L153.258 296.2H155.438L158.958 305.15H158.318L161.678 296.2H163.798L157.838 311.8H155.848ZM165.365 307V292.6H171.185C171.325 292.6 171.498 292.607 171.705 292.62C171.912 292.627 172.108 292.647 172.295 292.68C173.095 292.807 173.762 293.08 174.295 293.5C174.835 293.92 175.238 294.45 175.505 295.09C175.772 295.73 175.905 296.437 175.905 297.21C175.905 297.99 175.772 298.7 175.505 299.34C175.238 299.98 174.835 300.51 174.295 300.93C173.762 301.35 173.095 301.623 172.295 301.75C172.108 301.777 171.908 301.797 171.695 301.81C171.488 301.823 171.318 301.83 171.185 301.83H167.455V307H165.365ZM167.455 299.85H171.105C171.238 299.85 171.385 299.843 171.545 299.83C171.712 299.817 171.868 299.793 172.015 299.76C172.442 299.66 172.785 299.477 173.045 299.21C173.305 298.937 173.492 298.623 173.605 298.27C173.718 297.917 173.775 297.563 173.775 297.21C173.775 296.857 173.718 296.507 173.605 296.16C173.492 295.807 173.305 295.497 173.045 295.23C172.785 294.957 172.442 294.77 172.015 294.67C171.868 294.63 171.712 294.603 171.545 294.59C171.385 294.577 171.238 294.57 171.105 294.57H167.455V299.85ZM180.622 307.3C179.822 307.3 179.152 307.153 178.612 306.86C178.072 306.56 177.662 306.167 177.382 305.68C177.109 305.187 176.972 304.647 176.972 304.06C176.972 303.513 177.069 303.033 177.262 302.62C177.455 302.207 177.742 301.857 178.122 301.57C178.502 301.277 178.969 301.04 179.522 300.86C180.002 300.72 180.545 300.597 181.152 300.49C181.759 300.383 182.395 300.283 183.062 300.19C183.735 300.097 184.402 300.003 185.062 299.91L184.302 300.33C184.315 299.483 184.135 298.857 183.762 298.45C183.395 298.037 182.762 297.83 181.862 297.83C181.295 297.83 180.775 297.963 180.302 298.23C179.829 298.49 179.499 298.923 179.312 299.53L177.362 298.93C177.629 298.003 178.135 297.267 178.882 296.72C179.635 296.173 180.635 295.9 181.882 295.9C182.849 295.9 183.689 296.067 184.402 296.4C185.122 296.727 185.649 297.247 185.982 297.96C186.155 298.313 186.262 298.687 186.302 299.08C186.342 299.473 186.362 299.897 186.362 300.35V307H184.512V304.53L184.872 304.85C184.425 305.677 183.855 306.293 183.162 306.7C182.475 307.1 181.629 307.3 180.622 307.3ZM180.992 305.59C181.585 305.59 182.095 305.487 182.522 305.28C182.949 305.067 183.292 304.797 183.552 304.47C183.812 304.143 183.982 303.803 184.062 303.45C184.175 303.13 184.239 302.77 184.252 302.37C184.272 301.97 184.282 301.65 184.282 301.41L184.962 301.66C184.302 301.76 183.702 301.85 183.162 301.93C182.622 302.01 182.132 302.09 181.692 302.17C181.259 302.243 180.872 302.333 180.532 302.44C180.245 302.54 179.989 302.66 179.762 302.8C179.542 302.94 179.365 303.11 179.232 303.31C179.105 303.51 179.042 303.753 179.042 304.04C179.042 304.32 179.112 304.58 179.252 304.82C179.392 305.053 179.605 305.24 179.892 305.38C180.179 305.52 180.545 305.59 180.992 305.59ZM189.159 307V292.3H191.249V307H189.159Z" fill="#171717"/>
<path d="M141.227 328.182C141.227 329.409 141.006 330.47 140.562 331.364C140.119 332.258 139.511 332.947 138.739 333.432C137.966 333.917 137.083 334.159 136.091 334.159C135.098 334.159 134.216 333.917 133.443 333.432C132.67 332.947 132.063 332.258 131.619 331.364C131.176 330.47 130.955 329.409 130.955 328.182C130.955 326.955 131.176 325.894 131.619 325C132.063 324.106 132.67 323.417 133.443 322.932C134.216 322.447 135.098 322.205 136.091 322.205C137.083 322.205 137.966 322.447 138.739 322.932C139.511 323.417 140.119 324.106 140.562 325C141.006 325.894 141.227 326.955 141.227 328.182ZM139.864 328.182C139.864 327.174 139.695 326.324 139.358 325.631C139.025 324.938 138.572 324.413 138 324.057C137.432 323.701 136.795 323.523 136.091 323.523C135.386 323.523 134.748 323.701 134.176 324.057C133.608 324.413 133.155 324.938 132.818 325.631C132.485 326.324 132.318 327.174 132.318 328.182C132.318 329.189 132.485 330.04 132.818 330.733C133.155 331.426 133.608 331.951 134.176 332.307C134.748 332.663 135.386 332.841 136.091 332.841C136.795 332.841 137.432 332.663 138 332.307C138.572 331.951 139.025 331.426 139.358 330.733C139.695 330.04 139.864 329.189 139.864 328.182ZM147.21 325.273V326.409H142.688V325.273H147.21ZM144.006 323.182H145.347V331.5C145.347 331.879 145.402 332.163 145.511 332.352C145.625 332.538 145.769 332.663 145.943 332.727C146.121 332.788 146.309 332.818 146.506 332.818C146.653 332.818 146.775 332.811 146.869 332.795C146.964 332.777 147.04 332.761 147.097 332.75L147.369 333.955C147.278 333.989 147.152 334.023 146.989 334.057C146.826 334.095 146.619 334.114 146.369 334.114C145.991 334.114 145.619 334.032 145.256 333.869C144.896 333.706 144.597 333.458 144.358 333.125C144.123 332.792 144.006 332.371 144.006 331.864V323.182ZM150.756 328.75V334H149.415V322.364H150.756V326.636H150.869C151.074 326.186 151.381 325.828 151.79 325.562C152.203 325.294 152.752 325.159 153.438 325.159C154.032 325.159 154.553 325.278 155 325.517C155.447 325.752 155.794 326.114 156.04 326.602C156.29 327.087 156.415 327.705 156.415 328.455V334H155.074V328.545C155.074 327.852 154.894 327.316 154.534 326.938C154.178 326.555 153.684 326.364 153.051 326.364C152.612 326.364 152.218 326.456 151.869 326.642C151.525 326.828 151.252 327.098 151.051 327.455C150.854 327.811 150.756 328.242 150.756 328.75ZM162.527 334.182C161.686 334.182 160.961 333.996 160.351 333.625C159.745 333.25 159.277 332.727 158.947 332.057C158.622 331.383 158.459 330.598 158.459 329.705C158.459 328.811 158.622 328.023 158.947 327.341C159.277 326.655 159.735 326.121 160.322 325.739C160.913 325.352 161.603 325.159 162.391 325.159C162.845 325.159 163.294 325.235 163.737 325.386C164.18 325.538 164.584 325.784 164.947 326.125C165.311 326.462 165.601 326.909 165.817 327.466C166.033 328.023 166.141 328.708 166.141 329.523V330.091H159.413V328.932H164.777C164.777 328.439 164.679 328 164.482 327.614C164.288 327.227 164.012 326.922 163.652 326.699C163.296 326.475 162.875 326.364 162.391 326.364C161.857 326.364 161.394 326.496 161.004 326.761C160.618 327.023 160.321 327.364 160.112 327.784C159.904 328.205 159.8 328.655 159.8 329.136V329.909C159.8 330.568 159.913 331.127 160.141 331.585C160.372 332.04 160.692 332.386 161.101 332.625C161.51 332.86 161.985 332.977 162.527 332.977C162.879 332.977 163.197 332.928 163.482 332.83C163.769 332.727 164.018 332.576 164.226 332.375C164.434 332.17 164.595 331.917 164.709 331.614L166.004 331.977C165.868 332.417 165.639 332.803 165.317 333.136C164.995 333.466 164.597 333.723 164.124 333.909C163.65 334.091 163.118 334.182 162.527 334.182ZM168.18 334V325.273H169.476V326.591H169.567C169.726 326.159 170.014 325.809 170.43 325.54C170.847 325.271 171.317 325.136 171.839 325.136C171.938 325.136 172.061 325.138 172.209 325.142C172.357 325.146 172.468 325.152 172.544 325.159V326.523C172.499 326.511 172.394 326.494 172.232 326.472C172.072 326.445 171.904 326.432 171.726 326.432C171.302 326.432 170.923 326.521 170.589 326.699C170.26 326.873 169.999 327.116 169.805 327.426C169.616 327.733 169.521 328.083 169.521 328.477V334H168.18Z" fill="#383838"/>
<path d="M427.08 313.577V312.065H432.48V313.577H427.08ZM434.819 305.54H437.996C438.122 305.54 438.278 305.546 438.464 305.558C438.65 305.564 438.824 305.582 438.986 305.612C439.712 305.726 440.315 305.975 440.795 306.359C441.281 306.737 441.644 307.214 441.884 307.79C442.124 308.36 442.244 308.993 442.244 309.689C442.244 310.703 442.001 311.567 441.515 312.281C441.029 312.989 440.3 313.463 439.328 313.703C439.094 313.763 438.878 313.802 438.68 313.82C438.482 313.838 438.248 313.847 437.978 313.847H434.819V312.065H437.924C438.038 312.065 438.167 312.059 438.311 312.047C438.461 312.035 438.602 312.014 438.734 311.984C439.124 311.888 439.433 311.72 439.661 311.48C439.895 311.24 440.063 310.961 440.165 310.643C440.273 310.325 440.327 310.007 440.327 309.689C440.327 309.371 440.273 309.053 440.165 308.735C440.063 308.417 439.895 308.138 439.661 307.898C439.433 307.658 439.124 307.493 438.734 307.403C438.602 307.367 438.461 307.343 438.311 307.331C438.167 307.319 438.038 307.313 437.924 307.313H434.819V305.54ZM434.819 313.847L436.835 313.307L442.694 318.5H440.03L434.819 313.847ZM434.864 310.427V308.96H443.684V310.427H434.864ZM437.78 307.007V305.54H443.63V307.007H437.78ZM449.467 318.743C448.825 318.743 448.222 318.623 447.658 318.383C447.094 318.137 446.605 317.789 446.191 317.339C445.783 316.889 445.486 316.358 445.3 315.746L447.118 315.242C447.292 315.8 447.595 316.229 448.027 316.529C448.459 316.823 448.939 316.967 449.467 316.961C449.941 316.955 450.358 316.844 450.718 316.628C451.078 316.412 451.36 316.121 451.564 315.755C451.768 315.383 451.87 314.957 451.87 314.477C451.87 313.757 451.645 313.163 451.195 312.695C450.751 312.227 450.169 311.993 449.449 311.993C449.245 311.993 449.035 312.023 448.819 312.083C448.609 312.143 448.411 312.221 448.225 312.317L447.343 310.832L451.915 306.791L452.113 307.331H445.813V305.54H453.607V307.331L449.809 310.985L449.791 310.373C450.607 310.373 451.315 310.556 451.915 310.922C452.515 311.282 452.977 311.774 453.301 312.398C453.631 313.016 453.796 313.709 453.796 314.477C453.796 315.305 453.601 316.04 453.211 316.682C452.827 317.324 452.308 317.828 451.654 318.194C451.006 318.56 450.277 318.743 449.467 318.743ZM455.781 318.491L455.79 316.817L461.433 311.759C461.889 311.357 462.198 310.973 462.36 310.607C462.528 310.241 462.612 309.875 462.612 309.509C462.612 309.047 462.51 308.633 462.306 308.267C462.102 307.895 461.82 307.601 461.46 307.385C461.1 307.169 460.686 307.061 460.218 307.061C459.738 307.061 459.309 307.175 458.931 307.403C458.559 307.625 458.268 307.922 458.058 308.294C457.848 308.666 457.746 309.068 457.752 309.5H455.826C455.826 308.66 456.015 307.925 456.393 307.295C456.777 306.659 457.302 306.164 457.968 305.81C458.634 305.45 459.396 305.27 460.254 305.27C461.07 305.27 461.802 305.456 462.45 305.828C463.098 306.194 463.608 306.698 463.98 307.34C464.358 307.982 464.547 308.714 464.547 309.536C464.547 310.13 464.469 310.634 464.313 311.048C464.157 311.462 463.923 311.846 463.611 312.2C463.299 312.554 462.909 312.938 462.441 313.352L458.085 317.24L457.878 316.7H464.547V318.491H455.781ZM471.223 318.77C470.341 318.77 469.561 318.578 468.883 318.194C468.205 317.804 467.671 317.27 467.281 316.592C466.897 315.914 466.705 315.134 466.705 314.252V309.788C466.705 308.906 466.897 308.126 467.281 307.448C467.671 306.77 468.205 306.239 468.883 305.855C469.561 305.465 470.341 305.27 471.223 305.27C472.105 305.27 472.885 305.465 473.563 305.855C474.241 306.239 474.772 306.77 475.156 307.448C475.546 308.126 475.741 308.906 475.741 309.788V314.252C475.741 315.134 475.546 315.914 475.156 316.592C474.772 317.27 474.241 317.804 473.563 318.194C472.885 318.578 472.105 318.77 471.223 318.77ZM471.223 316.97C471.703 316.97 472.138 316.856 472.528 316.628C472.924 316.394 473.239 316.082 473.473 315.692C473.707 315.296 473.824 314.855 473.824 314.369V309.653C473.824 309.173 473.707 308.738 473.473 308.348C473.239 307.952 472.924 307.64 472.528 307.412C472.138 307.178 471.703 307.061 471.223 307.061C470.743 307.061 470.305 307.178 469.909 307.412C469.519 307.64 469.207 307.952 468.973 308.348C468.739 308.738 468.622 309.173 468.622 309.653V314.369C468.622 314.855 468.739 315.296 468.973 315.692C469.207 316.082 469.519 316.394 469.909 316.628C470.305 316.856 470.743 316.97 471.223 316.97ZM478.578 318.5V316.511H480.567V318.5H478.578ZM487.923 318.77C487.041 318.77 486.261 318.578 485.583 318.194C484.905 317.804 484.371 317.27 483.981 316.592C483.597 315.914 483.405 315.134 483.405 314.252V309.788C483.405 308.906 483.597 308.126 483.981 307.448C484.371 306.77 484.905 306.239 485.583 305.855C486.261 305.465 487.041 305.27 487.923 305.27C488.805 305.27 489.585 305.465 490.263 305.855C490.941 306.239 491.472 306.77 491.856 307.448C492.246 308.126 492.441 308.906 492.441 309.788V314.252C492.441 315.134 492.246 315.914 491.856 316.592C491.472 317.27 490.941 317.804 490.263 318.194C489.585 318.578 488.805 318.77 487.923 318.77ZM487.923 316.97C488.403 316.97 488.838 316.856 489.228 316.628C489.624 316.394 489.939 316.082 490.173 315.692C490.407 315.296 490.524 314.855 490.524 314.369V309.653C490.524 309.173 490.407 308.738 490.173 308.348C489.939 307.952 489.624 307.64 489.228 307.412C488.838 307.178 488.403 307.061 487.923 307.061C487.443 307.061 487.005 307.178 486.609 307.412C486.219 307.64 485.907 307.952 485.673 308.348C485.439 308.738 485.322 309.173 485.322 309.653V314.369C485.322 314.855 485.439 315.296 485.673 315.692C485.907 316.082 486.219 316.394 486.609 316.628C487.005 316.856 487.443 316.97 487.923 316.97ZM499.471 318.77C498.589 318.77 497.809 318.578 497.131 318.194C496.453 317.804 495.919 317.27 495.529 316.592C495.145 315.914 494.953 315.134 494.953 314.252V309.788C494.953 308.906 495.145 308.126 495.529 307.448C495.919 306.77 496.453 306.239 497.131 305.855C497.809 305.465 498.589 305.27 499.471 305.27C500.353 305.27 501.133 305.465 501.811 305.855C502.489 306.239 503.02 306.77 503.404 307.448C503.794 308.126 503.989 308.906 503.989 309.788V314.252C503.989 315.134 503.794 315.914 503.404 316.592C503.02 317.27 502.489 317.804 501.811 318.194C501.133 318.578 500.353 318.77 499.471 318.77ZM499.471 316.97C499.951 316.97 500.386 316.856 500.776 316.628C501.172 316.394 501.487 316.082 501.721 315.692C501.955 315.296 502.072 314.855 502.072 314.369V309.653C502.072 309.173 501.955 308.738 501.721 308.348C501.487 307.952 501.172 307.64 500.776 307.412C500.386 307.178 499.951 307.061 499.471 307.061C498.991 307.061 498.553 307.178 498.157 307.412C497.767 307.64 497.455 307.952 497.221 308.348C496.987 308.738 496.87 309.173 496.87 309.653V314.369C496.87 314.855 496.987 315.296 497.221 315.692C497.455 316.082 497.767 316.394 498.157 316.628C498.553 316.856 498.991 316.97 499.471 316.97Z" fill="#171717"/>
<defs>
<clipPath id="clip0_279_401">
<rect width="32" height="32" fill="white" transform="translate(72 72)"/>
</clipPath>
</defs>
</svg>
