<svg width="32" height="32" viewBox="0 0 32 32" fill="none" xmlns="http://www.w3.org/2000/svg">
<rect width="32" height="32" rx="16" fill="white"/>
<path d="M16.0001 25.68C15.6761 25.6828 15.3576 25.5957 15.0801 25.4286L11.6115 23.4C10.313 22.6738 9.22918 21.6177 8.46963 20.3384C7.71008 19.0591 7.30171 17.602 7.28577 16.1143V10.5714C7.28592 10.1979 7.40046 9.8334 7.61397 9.52692C7.82748 9.22044 8.12973 8.9867 8.48005 8.85714L15.3715 6.32571C15.7774 6.17714 16.2227 6.17714 16.6286 6.32571L23.5201 8.85714C23.8704 8.9867 24.1726 9.22044 24.3861 9.52692C24.5996 9.8334 24.7142 10.1979 24.7143 10.5714V16.1143C24.6984 17.602 24.29 19.0591 23.5305 20.3384C22.7709 21.6177 21.6871 22.6738 20.3886 23.4L16.9201 25.4286C16.6425 25.5957 16.3241 25.6828 16.0001 25.68ZM16.0001 7.64571C15.9547 7.63746 15.9083 7.63746 15.8629 7.64571L8.97148 10.1886C8.89386 10.2173 8.82725 10.2698 8.78109 10.3385C8.73494 10.4072 8.71159 10.4887 8.71434 10.5714V16.1143C8.73091 17.3522 9.07414 18.5637 9.70931 19.6263C10.3445 20.6889 11.249 21.5649 12.3315 22.1657L15.8001 24.2C15.8614 24.2335 15.9302 24.2511 16.0001 24.2511C16.0699 24.2511 16.1387 24.2335 16.2001 24.2L19.6686 22.1657C20.7511 21.5649 21.6556 20.6889 22.2908 19.6263C22.926 18.5637 23.2692 17.3522 23.2858 16.1143V10.5714C23.2861 10.4906 23.2617 10.4117 23.2157 10.3452C23.1697 10.2788 23.1044 10.2281 23.0286 10.2L16.1372 7.66857C16.0933 7.65264 16.0468 7.6449 16.0001 7.64571Z" fill="#171717"/>
<path d="M15.3714 18.7714C15.2028 18.7703 15.0396 18.7119 14.9086 18.6057L12.4686 16.5486C12.3231 16.4266 12.232 16.2518 12.2154 16.0626C12.1988 15.8735 12.258 15.6855 12.38 15.54C12.502 15.3945 12.6768 15.3034 12.8659 15.2868C13.0551 15.2702 13.2431 15.3294 13.3886 15.4514L15.3028 17.0629L18.5714 13.4629C18.6987 13.3219 18.8768 13.2373 19.0665 13.2277C19.2562 13.218 19.4419 13.2841 19.5828 13.4114C19.7238 13.5387 19.8084 13.7168 19.818 13.9065C19.8277 14.0962 19.7616 14.2819 19.6343 14.4229L15.9314 18.5371C15.8605 18.6143 15.7738 18.6752 15.6771 18.7157C15.5804 18.7561 15.4761 18.7751 15.3714 18.7714Z" fill="#171717"/>
</svg>
